<?xml version="1.0" encoding="UTF-8" standalone="no"?>
<!DOCTYPE svg PUBLIC "-//W3C//DTD SVG 1.1//EN" "http://www.w3.org/Graphics/SVG/1.1/DTD/svg11.dtd">
<svg width="100%" height="100%" viewBox="0 0 261 92" version="1.1" xmlns="http://www.w3.org/2000/svg" xmlns:xlink="http://www.w3.org/1999/xlink" xml:space="preserve" xmlns:serif="http://www.serif.com/" style="fill-rule:evenodd;clip-rule:evenodd;stroke-linejoin:round;stroke-miterlimit:2;">
    <g transform="matrix(1,0,0,1,-37.957001,-25.711998)">
        <g>
            <path d="M287.925,49.494L287.925,51.526L292.139,51.526L292.139,67.288L294.352,67.288L294.352,51.526L298.565,51.526L298.565,49.494L287.925,49.494Z" style="fill:rgb(18,22,24);fill-rule:nonzero;"/>
            <path d="M273.084,49.494L262.443,49.494L262.443,51.526L266.657,51.526L266.657,67.288L268.87,67.288L268.87,51.526L273.084,51.526L273.084,49.494Z" style="fill:rgb(18,22,24);fill-rule:nonzero;"/>
            <rect x="257.109" y="49.494" width="2.215" height="17.794" style="fill:rgb(18,22,24);fill-rule:nonzero;"/>
            <path d="M248.662,56.765L247.39,56.269C246.284,55.844 244.919,55.114 244.919,53.72C244.919,52.161 246.473,51.196 247.885,51.196C249.227,51.196 250.074,51.76 250.733,52.87L252.499,51.808C251.534,50.084 249.911,49.118 247.932,49.118C245.249,49.118 242.705,50.841 242.705,53.72C242.705,56.198 244.542,57.356 246.566,58.227L247.791,58.746C249.32,59.384 250.851,60.21 250.851,62.121C250.851,63.986 249.485,65.59 247.579,65.59C245.672,65.59 244.118,64.174 244.141,62.216L241.904,62.69C242.282,65.543 244.519,67.667 247.39,67.667C250.569,67.667 253.064,65.356 253.064,62.121C253.064,59.148 251.18,57.756 248.662,56.765Z" style="fill:rgb(18,22,24);fill-rule:nonzero;"/>
            <path d="M224.385,65.26L217.063,65.26L217.063,58.534L224.172,58.534L224.172,56.505L217.063,56.505L217.063,51.526L224.385,51.526L224.385,49.494L214.851,49.494L214.851,67.288L224.385,67.288L224.385,65.26Z" style="fill:rgb(18,22,24);fill-rule:nonzero;"/>
            <path d="M212.554,49.494L210.129,49.494L204.855,62.664L199.558,49.494L197.133,49.494L204.855,68.235L212.554,49.494Z" style="fill:rgb(18,22,24);fill-rule:nonzero;"/>
            <rect x="192.61" y="49.494" width="2.213" height="17.794" style="fill:rgb(18,22,24);fill-rule:nonzero;"/>
            <path d="M174.446,54.028L187.77,68.022L187.77,49.494L185.558,49.494L185.558,62.641L172.233,48.646L172.233,67.288L174.446,67.288L174.446,54.028Z" style="fill:rgb(18,22,24);fill-rule:nonzero;"/>
            <path d="M161.729,67.667C165.801,67.667 168.226,64.67 168.226,60.752L168.226,49.494L166.013,49.494L166.013,59.998C166.013,62.9 165.142,65.59 161.729,65.59C158.314,65.59 157.444,62.9 157.444,59.998L157.444,49.494L155.231,49.494L155.231,60.752C155.231,64.67 157.656,67.667 161.729,67.667Z" style="fill:rgb(18,22,24);fill-rule:nonzero;"/>
            <path d="M231.987,57.921L231.281,57.921L231.281,51.479L231.87,51.479C234.059,51.479 236.696,51.878 236.696,54.664C236.696,57.496 234.248,57.921 231.987,57.921ZM238.768,54.571C238.768,52.87 237.92,51.196 236.436,50.321C235.024,49.521 233.33,49.494 231.752,49.494L229.069,49.494L229.069,67.288L231.281,67.288L231.281,59.761L232.2,59.761L237.425,67.288L240.109,67.288L234.506,59.55C237.073,59.242 238.768,57.117 238.768,54.571Z" style="fill:rgb(18,22,24);fill-rule:nonzero;"/>
            <path d="M283.984,52.206C284.762,52.206 285.396,51.57 285.396,50.768C285.396,49.989 284.762,49.352 283.984,49.352C283.184,49.352 282.548,49.989 282.548,50.768C282.548,51.57 283.184,52.206 283.984,52.206Z" style="fill:rgb(18,22,24);fill-rule:nonzero;"/>
            <path d="M277.339,60.799L280.492,53.602L283.648,60.799L277.339,60.799ZM272.019,67.288L274.396,67.288L276.421,62.829L284.565,62.829L286.59,67.288L288.969,67.288L280.492,48.742L272.019,67.288Z" style="fill:rgb(18,22,24);fill-rule:nonzero;"/>
            <path d="M277.002,52.206C277.804,52.206 278.439,51.57 278.439,50.768C278.439,49.989 277.804,49.352 277.002,49.352C276.225,49.352 275.589,49.989 275.589,50.768C275.589,51.57 276.225,52.206 277.002,52.206Z" style="fill:rgb(18,22,24);fill-rule:nonzero;"/>
            <path d="M157.443,75.82L155.231,75.82L155.231,93.614L162.834,93.614L162.834,91.584L157.443,91.584L157.443,75.82Z" style="fill:rgb(18,22,24);fill-rule:nonzero;"/>
            <path d="M227.442,86.675L232.033,86.675C231.938,89.578 228.974,91.962 226.218,91.962C222.381,91.962 219.321,88.422 219.321,84.694C219.321,80.705 222.429,77.471 226.407,77.471C228.574,77.471 230.714,78.627 231.986,80.375L233.54,78.887C231.798,76.694 229.067,75.442 226.313,75.442C221.204,75.442 217.108,79.642 217.108,84.764C217.108,89.696 221.11,93.992 226.078,93.992C231.046,93.992 234.481,90.24 234.481,85.354L234.481,84.646L227.442,84.646L227.442,86.675Z" style="fill:rgb(18,22,24);fill-rule:nonzero;"/>
            <rect x="211.783" y="75.82" width="2.214" height="17.794" style="fill:rgb(18,22,24);fill-rule:nonzero;"/>
            <path d="M197.423,76.019L197.423,78.05L205.145,78.05L196.152,93.814L208.747,93.814L208.747,91.783L199.753,91.783L208.747,76.019L197.423,76.019Z" style="fill:rgb(18,22,24);fill-rule:nonzero;"/>
            <rect x="178.878" y="75.82" width="2.214" height="17.794" style="fill:rgb(18,22,24);fill-rule:nonzero;"/>
            <path d="M165.042,93.614L174.578,93.614L174.578,91.584L167.255,91.584L167.255,84.86L174.365,84.86L174.365,82.829L167.255,82.829L167.255,77.849L174.578,77.849L174.578,75.82L165.042,75.82L165.042,93.614Z" style="fill:rgb(18,22,24);fill-rule:nonzero;"/>
            <path d="M188.924,84.174L188.216,84.174L188.216,77.803L188.806,77.803C190.995,77.803 193.631,78.133 193.631,80.918C193.631,83.749 191.183,84.174 188.924,84.174ZM188.547,75.82L186.004,75.82L186.004,93.614L188.216,93.614L188.216,86.157L189.488,86.157C192.854,86.157 195.704,84.717 195.704,80.964C195.704,77.707 194.008,75.82 188.547,75.82Z" style="fill:rgb(18,22,24);fill-rule:nonzero;"/>
            <rect x="141.94" y="25.712" width="0.521" height="91.213" style="fill:rgb(18,22,24);fill-rule:nonzero;"/>
            <path d="M83.563,116.398C58.706,116.398 38.484,96.175 38.484,71.318C38.484,46.46 58.706,26.239 83.563,26.239C108.421,26.239 128.644,46.46 128.644,71.318C128.644,96.175 108.421,116.398 83.563,116.398ZM83.563,25.712C58.416,25.712 37.957,46.172 37.957,71.318C37.957,96.464 58.416,116.925 83.563,116.925C108.711,116.925 129.17,96.464 129.17,71.318C129.17,46.172 108.711,25.712 83.563,25.712Z" style="fill:rgb(18,22,24);fill-rule:nonzero;"/>
            <path d="M72.371,57.844C72.379,57.85 72.553,57.923 72.558,57.923C72.57,57.923 72.662,57.968 72.672,57.969C72.758,57.944 72.792,57.864 72.835,57.778C72.838,57.774 73.076,57.371 73.252,57.056C73.353,56.873 73.499,56.686 73.819,56.774C73.922,56.799 74.108,56.867 74.249,56.921C74.256,56.903 74.264,56.886 74.276,56.869C74.298,56.842 74.318,56.815 74.335,56.783C74.335,56.783 74.353,56.742 74.357,56.737C74.375,56.69 74.389,56.645 74.403,56.596C74.382,56.569 74.37,56.534 74.361,56.5C74.323,56.483 74.294,56.453 74.272,56.421C74.211,56.401 74.152,56.379 74.099,56.357C73.612,56.157 73.119,56.325 72.856,56.796C72.723,57.037 72.454,57.382 72.373,57.547C72.323,57.645 72.283,57.772 72.371,57.844Z" style="fill:rgb(18,22,24);fill-rule:nonzero;"/>
            <path d="M72.097,56.735C72.233,56.767 72.362,56.649 72.391,56.59C72.416,56.531 72.354,56.389 72.326,56.334C72.299,56.283 72.24,56.237 72.138,56.2C72.034,56.165 71.93,56.203 71.93,56.203C71.93,56.203 71.765,56.264 71.725,56.334C71.683,56.408 71.739,56.523 71.795,56.593C71.853,56.664 71.96,56.701 72.097,56.735Z" style="fill:rgb(18,22,24);fill-rule:nonzero;"/>
            <path d="M72.02,58.267C71.904,58.182 71.784,58.295 71.784,58.295C71.784,58.295 71.726,58.377 71.726,58.494C71.726,58.612 71.723,58.823 72.231,58.944C72.422,58.991 72.53,58.943 72.593,58.786C72.727,58.447 72.27,58.45 72.02,58.267Z" style="fill:rgb(18,22,24);fill-rule:nonzero;"/>
            <path d="M95.098,57.063C95.271,57.082 95.414,56.919 95.439,56.842C95.463,56.767 95.365,56.601 95.325,56.539C95.284,56.477 95.206,56.428 95.073,56.401C94.939,56.369 94.817,56.432 94.817,56.432C94.817,56.432 94.622,56.529 94.582,56.624C94.542,56.72 94.626,56.853 94.708,56.933C94.787,57.01 94.925,57.042 95.098,57.063Z" style="fill:rgb(18,22,24);fill-rule:nonzero;"/>
            <path d="M99.857,68.707C99.982,68.72 100.084,68.604 100.104,68.548C100.121,68.493 100.05,68.373 100.022,68.33C99.991,68.286 99.936,68.252 99.84,68.23C99.744,68.207 99.656,68.253 99.656,68.253C99.656,68.253 99.514,68.323 99.485,68.392C99.457,68.461 99.518,68.557 99.576,68.614C99.633,68.669 99.733,68.693 99.857,68.707Z" style="fill:rgb(18,22,24);fill-rule:nonzero;"/>
            <path d="M92.595,56.416C92.535,56.373 92.444,56.356 92.311,56.375C92.177,56.392 92.082,56.491 92.082,56.491C92.082,56.491 91.934,56.652 91.928,56.755C91.924,56.858 92.048,56.954 92.152,57C92.255,57.045 92.395,57.027 92.564,56.986C92.733,56.947 92.81,56.742 92.808,56.662C92.804,56.582 92.656,56.461 92.595,56.416Z" style="fill:rgb(18,22,24);fill-rule:nonzero;"/>
            <path d="M74.098,57.328C73.99,57.303 73.893,57.354 73.893,57.354C73.893,57.354 73.733,57.433 73.703,57.51C73.67,57.587 73.737,57.693 73.803,57.757C73.866,57.821 73.978,57.847 74.118,57.863C74.258,57.879 74.371,57.746 74.393,57.685C74.413,57.622 74.333,57.49 74.301,57.44C74.267,57.39 74.205,57.352 74.098,57.328Z" style="fill:rgb(18,22,24);fill-rule:nonzero;"/>
            <path d="M50.318,95.283L51.556,93.285L52.62,94.776L50.318,95.283ZM54.849,94.287L53.218,94.649L51.874,92.767L52.753,91.354L52.364,90.81L49.164,96.09L55.233,94.825L54.849,94.287Z" style="fill:rgb(18,22,24);fill-rule:nonzero;"/>
            <path d="M50.605,87.469L50.11,87.731L50.806,89.053L46.509,91.314L46.791,91.849L51.582,89.325L50.605,87.469Z" style="fill:rgb(18,22,24);fill-rule:nonzero;"/>
            <path d="M50.034,86.484L49.831,85.901L46.143,86.445L46.138,86.43L49.238,83.514L44.995,83.141L44.992,83.126L48.223,81.268L48.019,80.685L42.973,83.599L47.915,83.974L44.267,87.323L50.034,86.484Z" style="fill:rgb(18,22,24);fill-rule:nonzero;"/>
            <path d="M43.189,77.661L45.199,76.444L45.472,78.253L43.189,77.661ZM47.681,78.826L46.064,78.41L45.717,76.124L47.139,75.262L47.041,74.602L41.796,77.859L47.78,79.479L47.681,78.826Z" style="fill:rgb(18,22,24);fill-rule:nonzero;"/>
            <path d="M46.867,71.821L46.915,71.206L43.314,70.236L43.315,70.221L47.32,68.782L43.579,66.747L43.579,66.734L47.283,66.316L47.331,65.7L41.539,66.363L45.924,68.676L41.242,70.295L46.867,71.821Z" style="fill:rgb(18,22,24);fill-rule:nonzero;"/>
            <path d="M45.799,63.174L43.916,61.755L46.237,61.395L45.799,63.174ZM47.62,64.547L46.285,63.545L46.838,61.299L48.482,61.046L48.643,60.4L42.552,61.405L47.462,65.188L47.62,64.547Z" style="fill:rgb(18,22,24);fill-rule:nonzero;"/>
            <path d="M44.84,56.823L49.364,58.584L49.583,58.022L45.059,56.259L45.54,55.03L45.018,54.824L43.843,57.836L44.366,58.04L44.84,56.823Z" style="fill:rgb(18,22,24);fill-rule:nonzero;"/>
            <path d="M52.148,52.782L51.657,52.514L50.599,54.448L48.734,53.428L49.761,51.549L49.269,51.281L48.243,53.158L46.832,52.386L47.89,50.452L47.398,50.182L46.051,52.647L50.8,55.245L52.148,52.782Z" style="fill:rgb(18,22,24);fill-rule:nonzero;"/>
            <path d="M51.49,48.561C51.488,48.563 51.485,48.564 51.478,48.565L51.369,48.717L49.791,47.577L49.896,47.433C50.108,47.137 50.338,46.908 50.585,46.742C50.831,46.577 51.135,46.626 51.498,46.888C51.836,47.134 51.971,47.405 51.898,47.7C51.827,47.996 51.692,48.282 51.496,48.552C51.494,48.557 51.491,48.56 51.49,48.561ZM53.727,50.42L51.799,49.027L51.888,48.906L54.774,48.969L55.207,48.369L52.234,48.35C52.447,47.991 52.516,47.632 52.439,47.276C52.363,46.92 52.157,46.619 51.818,46.375C51.322,46.017 50.877,45.946 50.485,46.161C50.093,46.377 49.745,46.692 49.441,47.104L48.983,47.74L53.374,50.908L53.727,50.42Z" style="fill:rgb(18,22,24);fill-rule:nonzero;"/>
            <path d="M113.977,51.185L114.431,50.857L113.556,49.646L117.489,46.802L117.136,46.314L112.748,49.485L113.977,51.185Z" style="fill:rgb(18,22,24);fill-rule:nonzero;"/>
            <path d="M115.435,53.596L120.13,50.9L119.83,50.376L115.134,53.073L115.435,53.596Z" style="fill:rgb(18,22,24);fill-rule:nonzero;"/>
            <path d="M121.514,54.91L121.599,55.117C121.602,55.121 121.603,55.125 121.604,55.128C121.604,55.13 121.606,55.132 121.608,55.138C121.742,55.46 121.821,55.774 121.841,56.079C121.863,56.386 121.671,56.621 121.268,56.79C120.91,56.942 120.622,56.928 120.406,56.755C120.189,56.579 120.02,56.339 119.894,56.029L119.738,55.656L121.514,54.91ZM117.036,56.788L119.222,55.873L119.391,56.276C119.402,56.303 119.413,56.33 119.425,56.356C119.435,56.381 119.447,56.409 119.458,56.437C119.542,56.614 119.644,56.783 119.763,56.942C119.882,57.103 120.033,57.232 120.218,57.325C120.404,57.422 120.604,57.475 120.818,57.478C121.032,57.482 121.237,57.448 121.436,57.375C121.445,57.371 121.453,57.367 121.461,57.363C121.471,57.36 121.479,57.356 121.488,57.353C121.708,57.26 121.901,57.124 122.066,56.944C122.231,56.762 122.338,56.552 122.388,56.314C122.43,56.115 122.429,55.917 122.386,55.723C122.343,55.528 122.286,55.336 122.212,55.15C122.199,55.117 122.187,55.088 122.173,55.058C122.161,55.025 122.15,54.992 122.141,54.962L121.796,54.141L116.802,56.233L117.036,56.788Z" style="fill:rgb(18,22,24);fill-rule:nonzero;"/>
            <path d="M121.827,60.474C121.695,60.75 121.603,61.059 121.548,61.4L121.485,61.757C121.483,61.768 121.482,61.777 121.481,61.783C121.48,61.793 121.479,61.801 121.477,61.813C121.433,62.076 121.364,62.319 121.274,62.543C121.184,62.766 120.991,62.917 120.694,62.993C120.397,63.071 120.125,63.026 119.875,62.858C119.627,62.69 119.466,62.465 119.392,62.182C119.318,61.9 119.353,61.638 119.493,61.399C119.634,61.159 119.836,60.986 120.1,60.878L119.785,60.35C119.398,60.539 119.121,60.813 118.951,61.17C118.782,61.524 118.751,61.913 118.86,62.335C118.979,62.789 119.233,63.137 119.625,63.379C120.017,63.621 120.442,63.683 120.901,63.564C121.318,63.455 121.599,63.249 121.742,62.95C121.887,62.647 121.991,62.304 122.055,61.921L122.11,61.534C122.116,61.499 122.123,61.461 122.128,61.42C122.135,61.378 122.143,61.338 122.151,61.295C122.187,61.127 122.245,60.965 122.326,60.808C122.406,60.651 122.537,60.549 122.718,60.501C122.959,60.44 123.177,60.476 123.373,60.61C123.568,60.745 123.696,60.928 123.756,61.159C123.814,61.383 123.812,61.576 123.748,61.742C123.684,61.907 123.577,62.063 123.428,62.209L123.844,62.596C124.066,62.389 124.216,62.151 124.296,61.881C124.376,61.608 124.378,61.325 124.302,61.033C124.201,60.643 123.992,60.333 123.675,60.102C123.356,59.869 122.995,59.807 122.586,59.912C122.211,60.011 121.958,60.198 121.827,60.474Z" style="fill:rgb(18,22,24);fill-rule:nonzero;"/>
            <path d="M123.848,62.598L123.844,62.596C123.843,62.596 123.843,62.598 123.841,62.6L123.848,62.598Z" style="fill:rgb(18,22,24);fill-rule:nonzero;"/>
            <path d="M119.873,67.146L125.241,66.448L125.164,65.85L119.793,66.547L119.873,67.146Z" style="fill:rgb(18,22,24);fill-rule:nonzero;"/>
            <path d="M120.149,72.766L120.709,72.762L120.694,70.557L122.82,70.542L122.834,72.683L123.394,72.678L123.379,70.537L124.988,70.528L125.004,72.732L125.564,72.728L125.543,69.92L120.129,69.957L120.149,72.766Z" style="fill:rgb(18,22,24);fill-rule:nonzero;"/>
            <path d="M119.964,75.909L119.854,76.502L123.956,77.265L118.841,80.608L124.404,81.645L124.515,81.051L120.392,80.284L125.513,76.942L119.964,75.909Z" style="fill:rgb(18,22,24);fill-rule:nonzero;"/>
            <path d="M122.13,84.663C121.767,84.526 121.453,84.532 121.186,84.681C120.918,84.83 120.664,85.028 120.422,85.275L120.163,85.53C120.156,85.535 120.149,85.543 120.145,85.548C120.139,85.554 120.133,85.561 120.125,85.569C119.936,85.758 119.74,85.917 119.537,86.046C119.333,86.177 119.088,86.188 118.802,86.078C118.516,85.971 118.32,85.776 118.214,85.494C118.108,85.213 118.107,84.937 118.211,84.664C118.315,84.391 118.493,84.198 118.746,84.083C119,83.969 119.265,83.946 119.542,84.01L119.591,83.398C119.167,83.33 118.783,83.391 118.438,83.58C118.093,83.773 117.843,84.074 117.689,84.481C117.522,84.917 117.528,85.35 117.708,85.775C117.887,86.199 118.198,86.495 118.642,86.664C119.044,86.818 119.392,86.813 119.685,86.65C119.976,86.487 120.26,86.267 120.534,85.992L120.802,85.711C120.827,85.684 120.854,85.656 120.883,85.626C120.913,85.596 120.943,85.567 120.975,85.536C121.101,85.422 121.242,85.324 121.398,85.241C121.555,85.16 121.72,85.154 121.895,85.219C122.127,85.308 122.285,85.463 122.367,85.687C122.448,85.908 122.446,86.133 122.362,86.358C122.28,86.573 122.164,86.729 122.018,86.826C121.871,86.922 121.693,86.989 121.486,87.024L121.602,87.577C121.901,87.539 122.162,87.433 122.383,87.257C122.607,87.081 122.773,86.852 122.88,86.569C123.022,86.194 123.031,85.82 122.908,85.448C122.782,85.075 122.523,84.813 122.13,84.663Z" style="fill:rgb(18,22,24);fill-rule:nonzero;"/>
            <path d="M121.603,87.582L121.602,87.577C121.6,87.578 121.599,87.579 121.596,87.579L121.603,87.582Z" style="fill:rgb(18,22,24);fill-rule:nonzero;"/>
            <path d="M115.923,88.617L120.73,91.108L121.008,90.573L116.2,88.08L115.923,88.617Z" style="fill:rgb(18,22,24);fill-rule:nonzero;"/>
            <path d="M116.986,95.763L116.986,95.76L116.979,95.76L116.986,95.763Z" style="fill:rgb(18,22,24);fill-rule:nonzero;"/>
            <path d="M118.159,93.04C117.837,92.824 117.53,92.758 117.236,92.842C116.942,92.928 116.649,93.063 116.358,93.248L116.049,93.438C116.04,93.443 116.032,93.45 116.026,93.453C116.02,93.457 116.012,93.463 116.003,93.468C115.775,93.609 115.548,93.719 115.321,93.8C115.093,93.882 114.852,93.836 114.599,93.665C114.343,93.493 114.197,93.26 114.157,92.963C114.118,92.666 114.18,92.395 114.343,92.152C114.506,91.91 114.723,91.762 114.996,91.71C115.268,91.655 115.533,91.692 115.789,91.818L115.974,91.233C115.576,91.07 115.187,91.042 114.809,91.151C114.431,91.259 114.119,91.495 113.876,91.856C113.614,92.245 113.522,92.668 113.601,93.121C113.68,93.575 113.916,93.933 114.309,94.198C114.667,94.439 115.006,94.512 115.328,94.42C115.649,94.328 115.975,94.178 116.303,93.973L116.628,93.758C116.66,93.739 116.693,93.717 116.728,93.696C116.764,93.672 116.8,93.651 116.836,93.631C116.985,93.545 117.146,93.481 117.316,93.438C117.487,93.394 117.65,93.423 117.806,93.529C118.012,93.667 118.129,93.854 118.158,94.092C118.188,94.326 118.135,94.544 118.002,94.742C117.874,94.934 117.727,95.059 117.561,95.121C117.396,95.184 117.208,95.207 116.998,95.193L116.986,95.76C117.287,95.789 117.564,95.744 117.82,95.623C118.078,95.504 118.291,95.318 118.458,95.067C118.683,94.733 118.777,94.37 118.74,93.979C118.703,93.589 118.509,93.276 118.159,93.04Z" style="fill:rgb(18,22,24);fill-rule:nonzero;"/>
            <path d="M55.511,44.063C55.754,44.063 55.951,43.867 55.951,43.623C55.951,43.38 55.754,43.183 55.511,43.183C55.269,43.183 55.072,43.38 55.072,43.623C55.072,43.867 55.269,44.063 55.511,44.063Z" style="fill:rgb(18,22,24);fill-rule:nonzero;"/>
            <path d="M111.305,43.188C111.062,43.188 110.865,43.385 110.865,43.627C110.865,43.87 111.062,44.067 111.305,44.067C111.547,44.067 111.744,43.87 111.744,43.627C111.744,43.385 111.547,43.188 111.305,43.188Z" style="fill:rgb(18,22,24);fill-rule:nonzero;"/>
            <path d="M55.647,98.684C55.404,98.684 55.208,98.88 55.208,99.123C55.208,99.367 55.404,99.563 55.647,99.563C55.89,99.563 56.086,99.367 56.086,99.123C56.086,98.88 55.89,98.684 55.647,98.684Z" style="fill:rgb(18,22,24);fill-rule:nonzero;"/>
            <path d="M111.744,98.531C111.501,98.531 111.305,98.729 111.305,98.971C111.305,99.214 111.501,99.409 111.744,99.409C111.987,99.409 112.185,99.214 112.185,98.971C112.185,98.729 111.987,98.531 111.744,98.531Z" style="fill:rgb(18,22,24);fill-rule:nonzero;"/>
            <path d="M107.03,107.683L107.035,105.578L105.062,105.573L105.062,100.293C114.076,93.565 119.455,82.853 119.455,71.614C119.455,60.373 114.073,49.657 105.055,42.93L105.055,39.248L106.398,39.248L106.398,38.721L105.055,38.721L105.055,35.303L104.51,35.303L104.51,37.467L97.947,33.881L97.947,30.834L97.519,30.834L97.519,33.908L90.677,37.022L90.677,33.249L91.301,33.249L91.301,31.314L90.252,31.314C89.528,29.759 87.868,28.587 85.788,28.073C108.638,29.23 126.871,48.185 126.871,71.318C126.871,86.552 118.956,99.964 107.03,107.683ZM106.507,107.656L101.929,107.656L101.929,106.102L106.507,106.102L106.507,107.656ZM97.297,112.376C97.896,111.712 99.21,110.248 99.332,110.076C99.662,109.611 99.78,108.873 99.122,108.183L106.251,108.183C103.461,109.906 100.459,111.316 97.297,112.376ZM96.882,110.233C96.627,110.027 96.329,109.917 96.015,109.896L97.642,108.183L98.165,108.183C98.34,108.233 98.539,108.336 98.738,108.545C99.257,109.084 99.065,109.544 98.903,109.769C98.833,109.869 98.16,110.626 97.48,111.385C97.456,110.939 97.241,110.52 96.882,110.233ZM96.579,112.344C96.256,112.681 95.775,112.898 95.356,112.898C94.773,112.898 93.905,112.579 93.065,112.27C92.834,112.185 92.608,112.104 92.386,112.028L93.855,110.435C93.916,110.37 94.448,109.777 94.424,109.2C94.415,108.979 94.324,108.781 94.161,108.635C93.98,108.468 93.787,108.315 93.603,108.183L96.942,108.183L95.102,110.144C94.919,110.277 94.772,110.457 94.691,110.674C94.648,110.786 94.627,110.901 94.621,111.015C94.797,110.999 94.972,111.002 95.148,111.009C95.154,110.959 95.165,110.908 95.184,110.858C95.267,110.638 95.469,110.478 95.721,110.431C96.024,110.38 96.316,110.453 96.554,110.643C96.795,110.838 96.948,111.133 96.959,111.433C96.973,111.846 96.761,112.157 96.579,112.344ZM83.793,114.613C84.405,113.684 85.204,112.476 85.422,112.163C86.061,111.925 87.928,111.838 88.265,111.83C89.867,111.796 90.918,112.081 91.878,112.409L92.077,112.476C92.337,112.565 92.609,112.664 92.884,112.765C93.382,112.947 93.887,113.132 94.356,113.26C90.975,114.129 87.437,114.596 83.793,114.613ZM83.414,114.231C81.933,111.596 81.92,111.589 81.717,111.584C81.424,111.542 81.138,111.507 80.86,111.475L80.86,110.556L82.106,110.556L82.115,110.053L80.86,110.053L80.86,108.183L86.515,108.183C86.166,108.507 85.746,108.896 85.664,108.987C85.217,109.482 85.204,110.031 85.629,110.459C85.914,110.742 86.348,111.166 86.659,111.467C86.236,111.514 85.775,111.575 85.277,111.656C85.114,111.656 85.103,111.661 83.414,114.231ZM72.856,113.276C73.341,113.148 73.867,112.956 74.386,112.766C74.662,112.664 74.934,112.565 75.196,112.476L75.394,112.409C76.353,112.082 77.108,111.831 78.707,111.863C79.389,111.88 80.439,111.934 81.59,112.098C81.797,112.439 82.502,113.684 83.021,114.606C79.519,114.561 76.113,114.108 72.856,113.276ZM70.693,112.344C70.51,112.157 70.298,111.846 70.313,111.433C70.324,111.133 70.476,110.838 70.718,110.643C70.957,110.452 71.254,110.38 71.551,110.431C71.804,110.476 72.004,110.638 72.088,110.858C72.106,110.902 72.116,110.948 72.121,110.994C72.299,111.006 72.475,111.008 72.652,111.022C72.647,110.904 72.624,110.787 72.581,110.674C72.499,110.457 72.354,110.277 72.171,110.142L70.354,108.183L74.805,108.183L73.691,109.218L74.049,109.605L75.58,108.183L75.621,108.183L75.621,111.777C75.49,111.82 75.359,111.865 75.224,111.911L75.027,111.978C74.763,112.067 74.484,112.168 74.205,112.27C73.365,112.579 72.498,112.898 71.917,112.898C71.496,112.898 71.016,112.681 70.693,112.344ZM69.791,111.385C69.11,110.625 68.438,109.867 68.367,109.769C68.207,109.544 68.014,109.084 68.532,108.545C68.732,108.335 68.935,108.232 69.11,108.183L69.627,108.183L71.256,109.896C70.943,109.918 70.643,110.027 70.389,110.234C70.03,110.52 69.816,110.939 69.791,111.385ZM60.887,108.183L68.148,108.183C67.493,108.874 67.61,109.611 67.939,110.076C68.066,110.252 69.469,111.814 70.033,112.441C66.8,111.374 63.734,109.941 60.887,108.183ZM60.583,106.095L65.17,106.102L65.167,107.656L60.591,107.656L60.583,106.095ZM55.564,69.494L55.558,76.09L52.459,76.09L52.459,69.5L55.564,69.494ZM59.899,56.905C60.508,56.073 61.13,55.394 61.719,54.901L61.719,60.471C61.206,59.097 60.524,57.935 59.899,56.905ZM59.852,65.531C59.852,65.531 59.859,65.474 59.867,65.377C59.931,64.373 60.675,62.828 61.719,61.355L61.719,82.933L59.852,82.933L59.852,65.531ZM57.791,60.682C58.3,59.468 58.89,58.389 59.507,57.465C60.153,58.533 60.798,59.651 61.26,61.014C60.537,62.035 59.933,63.08 59.615,63.989C59.261,62.943 58.647,61.744 57.791,60.682ZM59.324,65.534L59.324,82.933L56.107,82.933L56.12,68.936C56.12,66.046 56.624,63.592 57.547,61.307C58.605,62.7 59.281,64.307 59.32,65.355C59.317,65.413 59.324,65.534 59.324,65.534ZM61.719,49.983L61.719,54.109C59.846,55.469 57.264,59.09 56.107,63.955L56.107,57.737C56.166,57.844 56.275,57.919 56.406,57.919C56.598,57.919 56.754,57.763 56.754,57.571C56.754,57.379 56.598,57.223 56.406,57.223C56.275,57.223 56.166,57.299 56.107,57.405L56.107,56.565C56.166,56.671 56.275,56.745 56.406,56.745C56.598,56.745 56.754,56.59 56.754,56.401C56.754,56.207 56.598,56.051 56.406,56.051C56.275,56.051 56.166,56.126 56.107,56.235L56.107,55.392C56.166,55.498 56.275,55.575 56.406,55.575C56.598,55.575 56.754,55.417 56.754,55.227C56.754,55.033 56.598,54.878 56.406,54.878C56.275,54.878 56.166,54.953 56.107,55.061L56.107,54.705L55.979,54.705C56.089,54.647 56.168,54.533 56.168,54.402C56.168,54.209 56.012,54.053 55.82,54.053C55.628,54.053 55.472,54.209 55.472,54.402C55.472,54.533 55.55,54.647 55.66,54.705L55.533,54.705L55.533,55.095C55.481,54.969 55.357,54.878 55.212,54.878C55.021,54.878 54.864,55.033 54.864,55.227C54.864,55.417 55.021,55.575 55.212,55.575C55.357,55.575 55.481,55.484 55.533,55.358L55.533,56.269C55.481,56.141 55.357,56.051 55.212,56.051C55.021,56.051 54.864,56.207 54.864,56.401C54.864,56.59 55.021,56.745 55.212,56.745C55.357,56.745 55.481,56.657 55.533,56.531L55.533,57.442C55.481,57.314 55.357,57.223 55.212,57.223C55.021,57.223 54.864,57.379 54.864,57.571C54.864,57.763 55.021,57.919 55.212,57.919C55.357,57.919 55.481,57.829 55.533,57.703C55.533,57.703 55.539,68.205 55.537,68.95L52.48,68.94L52.48,65.534C52.539,65.642 52.649,65.717 52.78,65.717C52.972,65.717 53.128,65.563 53.128,65.369C53.128,65.178 52.972,65.023 52.78,65.023C52.649,65.023 52.539,65.097 52.48,65.205L52.48,64.362C52.539,64.469 52.649,64.545 52.78,64.545C52.972,64.545 53.128,64.389 53.128,64.198C53.128,64.005 52.972,63.849 52.78,63.849C52.649,63.849 52.539,63.924 52.48,64.032L52.48,63.19C52.539,63.298 52.649,63.372 52.78,63.372C52.972,63.372 53.128,63.217 53.128,63.025C53.128,62.833 52.972,62.676 52.78,62.676C52.649,62.676 52.539,62.753 52.48,62.86L52.48,62.504L52.352,62.504C52.463,62.445 52.541,62.332 52.541,62.199C52.541,62.008 52.385,61.852 52.193,61.852C52.001,61.852 51.846,62.008 51.846,62.199C51.846,62.332 51.923,62.445 52.034,62.504L51.906,62.504L51.906,62.894C51.854,62.766 51.731,62.676 51.585,62.676C51.394,62.676 51.238,62.833 51.238,63.025C51.238,63.217 51.394,63.372 51.585,63.372C51.731,63.372 51.854,63.282 51.906,63.156L51.906,64.065C51.854,63.94 51.731,63.849 51.585,63.849C51.394,63.849 51.238,64.005 51.238,64.198C51.238,64.389 51.394,64.545 51.585,64.545C51.731,64.545 51.854,64.455 51.906,64.33L51.906,65.239C51.854,65.112 51.731,65.023 51.585,65.023C51.394,65.023 51.238,65.178 51.238,65.369C51.238,65.563 51.394,65.717 51.585,65.717C51.731,65.717 51.854,65.628 51.906,65.501L51.906,69.075L49.476,71.331L49.866,71.75L51.923,69.784L51.923,76.09L48.735,76.09C48.55,74.618 48.447,73.125 48.447,71.614C48.447,60.813 53.282,50.806 61.719,44.071L61.719,49.454L60.255,49.454L60.255,49.983L61.719,49.983ZM60.294,91.834C60.53,91.432 60.522,90.893 60.276,90.463C60.007,89.994 59.51,89.725 58.908,89.725C58.502,89.725 58.154,89.805 57.856,89.946C58.038,88.857 57.782,87.532 57.042,87.005C56.619,86.703 56.127,86.589 55.689,86.7C55.312,86.791 55.013,87.035 54.823,87.405C54.623,87.802 54.635,88.25 54.856,88.609C55.067,88.95 55.439,89.151 55.856,89.151L55.871,89.151L55.865,88.623C55.64,88.601 55.421,88.522 55.304,88.332C55.18,88.133 55.176,87.875 55.292,87.647C55.412,87.412 55.587,87.266 55.814,87.211C56.099,87.141 56.443,87.227 56.737,87.435C57.426,87.924 57.612,89.737 57.068,90.666C57.066,90.668 56.771,91.185 56.771,91.981C56.771,92.453 57.236,94.214 59.293,94.233L59.321,94.233C60.089,94.233 60.784,93.945 61.331,93.403C61.48,93.255 61.607,93.096 61.719,92.933L61.719,99.157C54.554,93.436 50.012,85.543 48.8,76.617L48.926,76.617C48.961,76.648 52.471,79.579 52.756,79.838C52.999,80.059 53.274,80.306 53.281,81.095C53.283,81.465 53.101,81.727 52.948,81.881C52.649,82.183 52.243,82.259 51.975,82.259C51.705,82.259 50.954,82.157 50.929,81.418C50.92,81.157 51.034,80.936 51.159,80.811C51.258,80.714 51.398,80.676 51.573,80.677C51.905,80.694 51.996,81.058 51.996,81.13L52.522,81.141C52.529,80.757 52.233,80.179 51.595,80.153C51.272,80.143 50.991,80.238 50.79,80.438C50.557,80.67 50.39,81.023 50.403,81.438C50.437,82.463 51.402,82.787 51.975,82.787C52.435,82.787 52.964,82.611 53.322,82.252C53.643,81.93 53.811,81.528 53.808,81.09C53.8,80.15 53.458,79.763 53.109,79.448C52.886,79.244 50.819,77.478 49.811,76.617L55.558,76.617L55.552,82.933L53.991,82.933L53.991,83.461L61.719,83.461L61.719,89.848L57.342,85.056L53.991,85.056L53.991,85.582L57.108,85.582L61.719,90.629L61.719,91.046C61.767,91.95 61.414,92.578 60.961,93.03C60.648,93.338 60.111,93.706 59.321,93.706C59.314,93.706 59.306,93.704 59.298,93.704C57.447,93.69 57.297,91.987 57.297,91.972C57.293,91.649 57.34,91.051 57.724,90.661C57.991,90.389 58.389,90.251 58.908,90.251C59.466,90.251 59.719,90.548 59.82,90.725C59.974,90.994 59.982,91.326 59.84,91.568C59.71,91.784 59.454,91.898 59.169,91.896L59.163,92.423C59.677,92.428 60.068,92.219 60.294,91.834ZM40.267,71.318C40.267,48.354 58.236,29.518 80.853,28.111C78.839,28.642 77.234,29.795 76.527,31.314L75.443,31.314L75.443,33.249L76.103,33.249L76.103,37.033L69.261,33.908L69.261,30.834L68.834,30.834L68.834,33.879L62.231,37.491L62.231,35.303L61.704,35.303L61.719,38.721L60.425,38.721L60.425,39.248L61.719,39.248L61.719,43.389C52.95,50.225 47.92,60.51 47.92,71.614C47.92,82.722 52.948,93.004 61.719,99.838L61.719,105.57L60.055,105.568L60.064,107.656C48.163,99.93 40.267,86.533 40.267,71.318ZM83.091,29.643L82.188,29.643L82.188,30.17L83.091,30.17L83.091,31.314L77.111,31.314C78.058,29.593 80.422,28.405 83.091,28.321L83.091,29.643ZM96.644,42.992C95.841,41.93 94.509,40.912 94.077,40.598L94.077,38.504L93.529,38.504L93.529,40.626C93.084,40.942 91.752,41.919 90.677,42.938L90.677,39.248L92.031,39.248L92.031,38.721L90.677,38.721L90.677,37.601L96.644,34.885L96.644,42.992ZM101.046,56.011C101.046,57.303 100.661,58.537 99.937,59.599C99.697,59.676 99.327,59.753 99.043,59.658C97.41,59.111 97.803,57.131 97.991,56.18L98.027,55.994C98.174,55.207 97.894,54.192 97.329,53.468C96.947,52.977 96.476,52.693 96.001,52.664C94.828,52.591 94.349,53.052 93.963,53.422L93.915,53.467C93.594,53.072 92.899,52.34 91.502,52.918C90.189,53.459 90.051,55.435 90.107,56.084C90.129,56.346 90.015,56.531 89.855,56.782C89.679,57.063 89.459,57.411 89.44,57.942C89.419,58.448 89.691,58.901 89.93,59.3C90.164,59.688 90.308,59.953 90.208,60.102C90.031,60.359 89.839,60.375 89.525,60.323C88.741,59.346 88.291,57.781 88.291,56.011C88.291,52.494 91.152,49.634 94.668,49.634C98.185,49.634 101.046,52.494 101.046,56.011ZM98.127,49.454L97.213,49.454L97.213,34.628L97.76,34.377L98.127,34.578L98.127,49.454ZM104.527,49.983L104.527,50.628C103.645,51.115 102.161,51.566 100.231,51.94C99.644,51.14 98.894,50.467 98.022,49.983L104.527,49.983ZM104.527,38.721L103.303,38.721L103.303,39.248L104.527,39.248L104.527,42.508C103.512,41.587 102.366,40.916 101.96,40.626L101.96,38.504L101.412,38.504L101.412,40.598C100.954,40.932 99.472,42.061 98.695,43.193L98.695,34.889L104.527,38.067L104.527,38.721ZM104.527,49.454L98.707,49.454L98.707,44.428C98.707,43.416 100.723,41.719 101.665,41.026C102.107,41.342 103.475,42.178 104.527,43.188L104.527,49.454ZM105.776,72.551C105.771,73.23 105.64,73.815 105.494,74.313C104.731,73.93 103.695,73.358 103.501,73.102C103.422,72.995 103.539,72.557 103.618,72.266C103.769,71.701 103.926,71.118 103.604,70.736C103.074,70.102 102.536,69.941 102.075,69.922C102.323,69.488 102.459,68.992 102.459,68.485C102.459,66.877 101.151,65.568 99.543,65.568C97.936,65.568 96.627,66.877 96.627,68.485C96.627,69.422 97.091,70.304 97.845,70.848C97.692,71.098 97.565,71.358 97.536,71.566C97.456,72.127 97.323,73.071 96.926,73.418C96.775,73.551 96.601,73.658 96.431,73.768C96.359,73.813 96.179,73.883 96.137,73.955C96.094,74.029 96.148,74.086 96.189,74.119C96.201,74.13 96.205,74.133 96.205,74.134C96.238,74.162 96.301,74.215 96.404,74.265C97.011,74.602 98.394,74.973 99.601,75.026C99.53,75.357 99.396,75.88 99.13,76.703C98.483,78.702 97.35,80.651 96.504,81.808C95.652,82.975 95.049,83.5 94.41,84.055L94.165,84.268C93.413,84.929 92.902,85.429 91.973,86.409C91.583,86.823 91.284,87.328 90.995,87.816C90.604,88.478 90.232,89.102 89.68,89.432C87.92,90.483 87.426,91.955 87.289,92.617C86.939,92.247 86.434,91.696 86.102,91.244C85.621,90.593 85.633,88.673 85.895,87.115C86.022,86.35 86.111,85.516 86.201,84.585C87.096,84.123 87.658,82.554 88.052,81.2C88.321,80.283 89.108,79.133 89.565,78.836C90.134,78.467 91.493,76.9 92.281,75.799C92.982,74.822 93.485,73.23 93.629,72.742C94.4,72.785 95.304,72.66 96.003,71.992C96.492,71.528 96.678,71.121 96.573,70.754C96.443,70.301 95.896,69.989 94.846,69.773C94.574,69.716 94.366,69.66 94.196,69.61C94.317,69.561 94.444,69.51 94.583,69.456C95.128,69.216 95.356,69.184 95.688,69.2L95.712,68.672C95.25,68.651 94.942,68.723 94.382,68.971C93.72,69.223 93.237,69.45 93.172,69.479C93.084,69.502 92.994,69.537 92.883,69.584C92.464,69.765 91.733,70.072 90.304,69.84C90.86,69.181 91.781,68.131 92.148,67.893C92.547,67.633 93.959,67.203 94.802,66.944C95.108,66.85 95.368,66.771 95.533,66.715C96.234,66.479 97.296,65.637 97.717,64.983C98.036,64.489 99.326,63.751 100.26,63.646C100.877,63.575 101.214,63.692 101.345,63.755C101.825,65.586 103.036,66.951 103.592,67.579C103.701,67.701 103.822,67.838 103.845,67.879L103.924,68.01C105.464,70.584 105.781,71.902 105.776,72.551ZM106.917,65.203L106.922,65.203L106.922,78.87C106.862,78.787 106.802,78.702 106.738,78.616C106.23,77.914 105.598,77.041 105.595,75.829C105.594,75.701 105.682,75.446 105.782,75.147C105.986,74.553 106.293,73.647 106.302,72.556C106.309,71.719 105.885,70.501 105.055,68.943L105.055,60.934C106.135,62.438 106.917,64.143 106.917,65.203ZM106.947,56.588C106.292,57.664 105.572,58.886 105.055,60.348L105.055,54.524C105.665,55.023 106.313,55.722 106.947,56.588ZM111.333,69.168L114.406,69.168L114.406,76.09L111.34,76.09L111.333,69.168ZM109.299,60.991C110.161,63.244 110.786,65.901 110.763,68.808L110.777,82.933L107.449,82.933L107.449,65.207C107.449,64.132 108.241,62.383 109.299,60.991ZM107.183,63.66C106.865,62.753 106.309,61.719 105.586,60.696C106.047,59.333 106.693,58.216 107.339,57.149C107.956,58.072 108.546,59.151 109.055,60.366C108.199,61.427 107.537,62.615 107.183,63.66ZM105.062,92.894C105.179,93.071 105.317,93.242 105.479,93.403C106.026,93.945 106.721,94.233 107.489,94.233L107.516,94.233C109.573,94.214 110.029,92.451 110.038,91.98C110.042,91.721 110.017,91.407 109.922,91.093C109.922,91.093 109.744,90.668 109.741,90.666C109.197,89.737 109.384,87.924 110.073,87.435C110.366,87.227 110.709,87.141 110.996,87.211C111.223,87.266 111.397,87.412 111.517,87.647C111.634,87.875 111.629,88.133 111.505,88.332C111.389,88.522 111.182,88.658 110.945,88.623L110.938,89.151L110.954,89.151C111.37,89.151 111.742,88.95 111.953,88.609C112.175,88.25 112.188,87.802 111.986,87.408C111.797,87.035 111.498,86.791 111.121,86.7C110.684,86.589 110.19,86.703 109.768,87.005C109.027,87.532 108.772,88.857 108.954,89.946C108.655,89.805 108.308,89.725 107.9,89.725C107.301,89.725 106.802,89.994 106.533,90.463C106.287,90.893 106.279,91.432 106.515,91.834C106.739,92.215 107.133,92.423 107.627,92.423L107.647,92.423L107.64,91.896C107.309,91.9 107.098,91.784 106.97,91.568C106.828,91.326 106.835,90.994 106.99,90.725C107.091,90.548 107.345,90.251 107.9,90.251C108.419,90.251 108.819,90.389 109.086,90.661C109.47,91.051 109.517,91.649 109.512,91.969C109.512,91.987 109.362,93.69 107.512,93.704C107.504,93.704 107.496,93.706 107.489,93.706C106.698,93.704 106.161,93.338 105.849,93.03C105.31,92.494 105.062,91.938 105.062,91.205L105.062,90.629L109.67,85.582L112.79,85.582L112.79,85.056L109.439,85.056L105.062,89.848L105.062,83.461L112.79,83.461L112.79,82.933L111.347,82.933L111.341,76.617L117.391,76.608C116.264,77.454 113.925,79.244 113.702,79.448C113.352,79.763 113.01,80.151 113.003,81.09C113,81.528 113.168,81.93 113.489,82.252C113.846,82.611 114.375,82.844 114.836,82.844C115.408,82.844 116.382,82.463 116.416,81.438C116.43,81.023 116.253,80.67 116.021,80.438C115.819,80.238 115.546,80.143 115.214,80.153C114.578,80.179 114.305,80.757 114.312,81.141L114.839,81.13C114.838,81.058 114.906,80.694 115.236,80.677C115.408,80.677 115.553,80.714 115.65,80.811C115.775,80.936 115.898,81.157 115.891,81.418C115.865,82.157 115.106,82.317 114.836,82.317C114.567,82.317 114.162,82.183 113.863,81.883C113.709,81.727 113.526,81.465 113.53,81.095C113.535,80.306 113.811,80.059 114.055,79.838C114.308,79.607 118.333,76.616 118.333,76.616L118.566,76.616C117.252,85.675 112.415,94.008 105.062,99.631L105.062,92.894ZM106.922,81.092L106.922,82.933L105.062,82.933L105.062,81.625C105.504,81.608 106.366,81.511 106.922,81.092ZM102.226,74.587C102.984,74.311 103.537,73.993 103.683,73.907C104.221,74.256 104.948,74.63 105.335,74.822C105.319,74.872 105.301,74.931 105.284,74.979C105.158,75.347 105.067,75.616 105.067,75.83C105.072,77.213 105.76,78.161 106.313,78.924C106.639,79.375 106.922,79.763 106.922,80.078C106.922,80.285 106.849,80.459 106.701,80.603C106.322,80.97 105.54,81.079 105.062,81.098L105.062,80.992C104.995,79.618 104.583,77.458 102.226,74.587ZM99.662,107.139C99.833,106.818 99.834,106.457 99.666,106.062C99.447,105.547 99.214,105.15 99.009,104.8C98.95,104.698 98.896,104.604 98.844,104.514L102.621,104.514L102.626,105.57L101.401,105.57L101.401,107.656L99.147,107.656C99.348,107.53 99.542,107.363 99.662,107.139ZM88.235,107.656C88.675,107.388 89.217,107.058 89.584,106.841C90.153,106.504 90.611,106.302 90.948,106.238C91.016,106.225 92.632,105.927 92.745,104.984C92.763,104.836 92.755,104.69 92.735,104.548L96.314,104.548C96.314,104.635 96.315,104.725 96.315,104.806C96.316,105.168 96.317,105.48 96.338,105.689C96.353,105.838 96.344,106.054 96.334,106.282C96.311,106.808 96.289,107.35 96.512,107.656L88.235,107.656ZM88.917,110.533C89.517,109.845 89.285,109.318 88.983,108.996C88.743,108.743 88.343,108.434 87.995,108.183L92.063,108.183L91.516,108.707C91.483,108.741 91.189,109.064 91.221,109.463C91.233,109.613 91.299,109.838 91.547,110.026C92.048,110.416 92.21,110.546 92.213,110.548L92.546,110.14C92.546,110.14 92.386,110.008 91.869,109.61C91.766,109.531 91.75,109.465 91.745,109.422C91.733,109.281 91.857,109.113 91.89,109.076L92.754,108.251C92.989,108.393 93.436,108.681 93.806,109.019C93.852,109.064 93.995,109.195 93.795,109.603C93.666,109.861 93.472,110.076 93.469,110.079L91.841,111.841C90.924,111.531 90.122,111.297 88.551,111.338C88.384,111.342 88.19,111.348 87.977,111.361C88.356,111.046 88.795,110.674 88.917,110.533ZM87.199,108.271C87.53,108.493 88.264,109 88.6,109.358C88.839,109.613 88.817,109.846 88.52,110.188C88.398,110.326 87.727,110.888 87.231,111.293C86.945,111.012 86.356,110.439 86.002,110.086C85.913,109.997 85.676,109.76 86.056,109.34C86.135,109.251 86.746,108.684 87.199,108.271ZM65.814,87.98L66.789,95.001L65.27,95.776L63.668,88.756L65.814,87.98ZM63.476,75.982C63.469,75.733 63.602,75.143 63.718,74.623C63.846,74.051 63.967,73.512 63.977,73.183C63.981,73.02 64.003,72.836 64.029,72.632C64.104,72.028 64.195,71.278 63.956,70.457C63.786,69.872 63.458,68.286 63.478,67.267C63.491,66.521 63.685,64.96 63.685,64.96C64.067,64.986 65.156,65.1 65.606,65.313C66.079,65.539 66.668,66.258 67.22,67.285C67.754,68.279 67.293,70.086 67.14,70.619C66.833,71.683 67.267,72.717 67.622,73.4C67.708,73.571 67.804,73.725 67.899,73.879C68.209,74.375 68.477,74.803 68.358,75.608C68.22,76.545 68.296,76.977 68.479,78.016C68.533,78.323 68.596,78.682 68.668,79.127C68.961,80.994 68.381,82.143 67.958,82.981C67.951,82.994 67.943,83.01 67.936,83.024C67.879,82.423 67.656,81.869 67.221,81.602C66.566,81.299 65.96,81.319 65.536,81.627C65.39,81.153 65.504,80.652 65.616,80.166C65.755,79.56 65.899,78.932 65.456,78.455C65.324,78.314 65.156,78.205 64.978,78.092C64.803,77.978 63.871,77.401 63.705,76.903C63.58,76.625 63.485,76.308 63.476,75.982ZM66.186,52.487C65.782,53.162 65.488,53.91 65.334,54.713C63.605,54.369 62.779,53.99 62.261,53.688L62.261,51.304C63.168,51.746 64.484,52.143 66.186,52.487ZM69.567,49.454L68.652,49.454L68.652,34.579L69.02,34.377L69.567,34.628L69.567,49.454ZM72.112,49.634C75.627,49.634 78.489,52.494 78.489,56.011C78.489,57.996 77.548,59.878 75.971,61.081L73.912,59.961C74.047,59.842 74.284,59.663 74.284,59.663C74.305,59.668 74.336,59.68 74.379,59.693C74.791,59.824 75.886,60.17 76.54,59.499C77.083,58.942 77.002,58.307 76.941,57.846C76.907,57.574 76.877,57.339 76.964,57.19C77.183,56.825 77.314,56.195 77.144,55.699C77.048,55.415 76.862,55.213 76.607,55.114C76.329,55.004 76.257,54.915 76.157,54.795C76.094,54.717 76.028,54.64 75.929,54.56C75.874,54.513 75.779,54.28 75.717,54.123C75.57,53.758 75.403,53.345 75.081,53.181C74.726,53.005 74.371,53.151 74.112,53.26C74.021,53.298 73.884,53.356 73.87,53.36C73.847,53.342 73.8,53.274 73.766,53.223C73.613,52.998 73.352,52.599 72.736,52.647C72.341,52.664 72.102,52.856 71.891,53.026C71.791,53.107 71.696,53.181 71.59,53.235C71.476,53.291 71.148,53.313 70.885,53.328C70.404,53.36 69.951,53.389 69.707,53.599C69.38,53.879 69.252,54.347 69.148,54.722C69.111,54.855 69.08,54.974 69.042,55.056C68.979,55.19 68.842,55.271 68.685,55.366C68.467,55.495 68.169,55.673 68.15,56.056C68.127,56.496 68.602,56.791 69.062,57.075C69.286,57.213 69.707,57.545 69.707,57.545C70.089,57.926 70.265,58.099 70.15,58.802C70.079,59.239 69.778,59.287 69.325,59.312C69.199,59.319 67.822,59.465 67.207,59.864C67.171,59.885 67.127,59.914 67.089,59.938C66.205,58.808 65.735,57.45 65.735,56.011C65.735,52.494 68.596,49.634 72.112,49.634ZM73.027,41.026C73.498,41.363 76.052,43.275 76.103,44.219L76.103,49.454L74.262,49.454C73.585,49.231 72.863,49.108 72.112,49.108C71.425,49.108 70.763,49.211 70.137,49.399L70.137,44.413C70.268,43.347 72.184,41.647 73.027,41.026ZM76.103,38.721L74.749,38.721L74.749,39.248L76.103,39.248L76.103,43.004C75.078,41.802 73.954,40.974 73.32,40.625L73.32,38.504L72.773,38.504L72.773,40.598C72.329,40.923 70.93,41.989 70.137,43.087L70.137,34.885L76.103,37.611L76.103,38.721ZM82.42,49.983C82.381,50.041 82.347,50.1 82.32,50.165C82.261,50.304 82.228,50.457 82.228,50.617C82.228,50.776 82.261,50.928 82.32,51.067C82.368,51.178 82.436,51.279 82.515,51.371C82.515,51.371 82.764,51.619 82.926,51.68C81.807,52.225 80.161,52.679 78.289,52.946C77.666,51.697 76.681,50.661 75.466,49.983L82.42,49.983ZM83.39,49.983C83.74,49.983 84.024,50.266 84.024,50.617C84.024,50.965 83.74,51.248 83.39,51.25C83.041,51.248 82.756,50.965 82.756,50.617C82.756,50.266 83.041,49.983 83.39,49.983ZM84.36,47.74C84.361,47.756 84.358,47.77 84.359,47.786C84.404,48.401 84.858,48.845 85.549,48.845L85.564,48.845C85.938,48.842 86.283,48.689 86.538,48.412C86.801,48.129 86.936,47.742 86.909,47.354C86.854,46.606 86.298,46.02 85.548,45.848L85.56,45.848C85.56,44.85 84.81,44.038 83.889,44.038L83.889,44.565C84.504,44.565 85.003,45.112 85.028,45.796C84.3,45.819 83.711,46.194 83.391,46.771C83.071,46.19 82.482,45.816 81.752,45.792C81.777,45.109 82.275,44.562 82.891,44.562L82.891,44.034C81.97,44.034 81.221,44.847 81.221,45.845L81.239,45.845C80.489,46.017 79.927,46.601 79.872,47.351C79.844,47.737 79.978,48.123 80.241,48.408C80.496,48.683 80.842,48.837 81.217,48.842L81.232,48.842C81.92,48.842 82.391,48.397 82.435,47.782C82.437,47.768 82.436,47.754 82.436,47.74L81.91,47.74L81.91,47.744C81.883,48.123 81.547,48.31 81.221,48.314C80.993,48.313 80.783,48.218 80.627,48.051C80.463,47.873 80.379,47.632 80.397,47.388C80.442,46.764 80.983,46.314 81.685,46.314L81.698,46.314C82.54,46.321 83.127,46.933 83.127,47.801L83.127,49.454L78.141,49.454C78.51,46.604 82.37,40.549 83.358,39.038C84.354,40.582 88.308,46.843 88.693,49.454L83.653,49.454L83.653,47.804C83.653,46.937 84.241,46.326 85.082,46.319L85.095,46.319C85.787,46.319 86.339,46.779 86.383,47.393C86.401,47.635 86.316,47.877 86.151,48.054C85.997,48.223 85.786,48.317 85.558,48.319L85.55,48.319C85.201,48.319 84.912,48.124 84.885,47.75L84.885,47.74L84.36,47.74ZM87.769,55.92C86.185,55.624 84.756,55.197 83.428,54.603L83.426,54.596C83.41,54.598 83.395,54.6 83.377,54.6C83.362,54.6 83.349,54.598 83.336,54.596L83.334,54.603C82.186,55.117 80.699,55.557 79.009,55.881C78.993,55.02 78.818,54.198 78.515,53.443C80.533,53.143 82.23,52.643 83.39,52.016C84.55,52.643 86.248,53.143 88.265,53.443C87.957,54.209 87.781,55.044 87.769,55.92ZM88.517,60.308C87.945,60.569 88.083,61.349 88.187,61.721C87.7,62.092 86.26,63.287 86.147,64.506C85.89,67.235 84.483,69.055 83.775,69.637C83.172,70.133 82.681,71.297 82.767,72.033C82.807,72.385 82.916,72.723 83.067,73.043L83.017,73.005C82.909,73.145 82.8,73.394 82.702,73.694C82.549,73.48 82.346,73.241 82.101,73.057L80.656,66.905L80.054,67.051C79.673,66.559 78.27,64.74 78.002,64.32C77.885,64.137 77.85,63.885 77.815,63.643C77.765,63.287 77.713,62.919 77.414,62.694C77.17,62.51 76.746,61.752 76.526,61.301C77.983,60.084 78.877,58.314 78.991,56.42C80.692,56.102 82.201,55.664 83.388,55.154C84.735,55.737 86.177,56.166 87.779,56.456C87.842,57.94 88.208,59.272 88.819,60.239C88.717,60.246 88.616,60.263 88.517,60.308ZM95.094,54.392C95.439,54.604 95.688,55.098 95.835,55.543C95.062,55.415 94.264,55.686 94.091,55.771L94.321,56.243C94.444,56.184 95.261,55.903 95.937,56.102C95.937,56.102 95.976,56.135 95.98,56.177C96.033,56.783 96.136,58.275 95.936,59.028C95.894,59.184 95.879,59.346 95.878,59.506C95.495,59.478 95.196,59.308 94.888,59.118C94.543,58.907 94.188,58.689 93.739,58.742C93.362,58.788 93.105,58.974 92.88,59.139C92.638,59.313 92.445,59.438 92.138,59.422C92.124,59.378 92.109,59.326 92.095,59.289C92.094,59.286 92.093,59.283 92.092,59.28C92.088,59.27 92.084,59.259 92.08,59.25C92.068,59.217 92.058,59.183 92.045,59.158C91.935,58.95 91.697,58.335 91.66,57.776C91.64,57.484 91.702,56.676 91.759,56.107L91.762,56.112C91.763,56.11 91.91,56.023 92.29,56.023C92.601,56.023 92.939,56.011 93.081,56.203C93.123,56.259 93.204,56.461 93.166,56.652C93.024,57.366 92.822,58.085 92.725,58.267C92.725,58.267 93.183,58.282 93.288,58.286C93.33,58.138 93.666,56.817 93.67,56.805C93.785,56.423 93.704,56.077 93.587,55.922C93.311,55.549 92.7,55.495 92.29,55.495C92.098,55.495 91.948,55.514 91.828,55.539C91.828,55.536 91.829,55.531 91.83,55.526C91.903,55.17 92.03,54.752 92.6,54.3C93.119,53.889 94.353,53.934 95.094,54.392ZM92.25,59.95C92.668,59.932 92.95,59.731 93.186,59.559C93.385,59.415 93.558,59.289 93.801,59.26C94.068,59.227 94.311,59.375 94.615,59.562C94.956,59.771 95.375,60.022 95.932,60.036C95.957,60.139 95.987,60.239 96.025,60.335L96.031,60.335C96.077,60.513 96.148,60.823 96.179,61.131C96.212,61.463 96.019,62.186 95.83,62.886C95.765,63.13 95.699,63.377 95.638,63.619C95.418,64.496 94.763,65.226 94.229,65.492C93.771,65.723 92.924,65.774 92.171,65.62C91.765,65.536 91.715,65.233 91.691,64.841C91.688,64.785 91.684,64.737 91.679,64.698C91.661,64.55 91.83,64.099 91.931,63.828C91.968,63.729 92.003,63.635 92.032,63.551C92.181,63.124 92.298,62.066 92.312,61.872C92.33,61.625 92.314,60.508 92.25,59.95ZM89.521,69.676C88.551,69.412 84.698,71.727 83.42,72.518C83.359,72.339 83.311,72.158 83.29,71.973C83.225,71.416 83.647,70.425 84.11,70.044C84.201,69.969 86.33,68.182 86.67,64.558C86.768,63.522 88.156,62.405 88.544,62.111C88.804,62.187 89.181,62.287 89.653,62.377C89.808,62.407 89.946,62.419 90.078,62.422C90.078,62.419 90.079,62.413 90.079,62.408C90.164,62.412 90.257,62.414 90.357,62.414C90.392,62.414 90.428,62.414 90.462,62.413C90.937,62.405 91.426,62.299 91.752,62.213C91.704,62.603 91.623,63.143 91.54,63.381C91.512,63.461 91.479,63.551 91.443,63.647C91.258,64.139 91.13,64.509 91.162,64.761C91.166,64.791 91.168,64.831 91.17,64.873C91.19,65.2 91.237,65.96 92.066,66.129C92.354,66.19 92.707,66.229 93.071,66.229C93.558,66.229 94.065,66.158 94.461,65.958C95.083,65.65 95.874,64.824 96.143,63.746C96.204,63.506 96.269,63.262 96.334,63.022C96.462,62.542 96.651,61.764 96.651,61.764C96.884,61.672 97.46,61.432 97.984,61.434C98.535,61.435 99.085,61.666 99.503,61.895C100.126,62.361 100.684,62.725 101.147,62.741C101.16,62.81 101.179,62.873 101.188,62.943C101.197,63.019 101.218,63.089 101.231,63.162C100.987,63.107 100.654,63.071 100.2,63.122C99.161,63.241 97.703,64.015 97.274,64.698C96.461,65.992 94.614,66.45 94.614,66.45C94.127,66.6 92.038,67.335 91.861,67.45C91.338,67.788 90.109,69.249 89.719,69.721C89.65,69.704 89.592,69.696 89.521,69.676ZM92.481,72.033C90.897,71.676 89.585,72.388 88.569,72.935C88.471,72.989 88.347,73.05 88.202,73.124C87.433,73.513 86.207,74.135 85.377,74.969C84.968,74.645 84.123,73.905 83.637,73.002C85.736,71.7 88.788,70.044 89.388,70.187C91.529,70.742 92.582,70.286 93.089,70.068C93.184,70.03 93.273,69.989 93.319,69.983C93.495,69.95 93.623,69.989 93.907,70.074C94.11,70.135 94.37,70.211 94.74,70.287C95.845,70.516 96.037,70.789 96.068,70.9C96.111,71.055 95.96,71.308 95.639,71.613C94.677,72.53 93.193,72.196 92.481,72.033ZM76.275,104.045C76.975,103.964 77.415,104.442 77.709,104.76C77.815,104.873 77.899,104.964 77.986,105.019C78.103,105.093 78.275,105.166 78.463,105.246C79.077,105.502 79.537,105.732 79.435,106.162C79.37,106.435 78.318,106.398 77.919,106.381C77.78,106.377 77.652,106.373 77.546,106.371C77.291,106.371 76.989,106.002 76.723,105.679C76.504,105.411 76.297,105.157 76.062,105.015C75.914,104.926 75.737,104.683 75.538,104.293C75.642,104.206 75.854,104.096 76.275,104.045ZM73.18,103.761C73.184,103.731 73.639,100.925 73.834,98.758C73.984,97.073 73.844,96.116 73.632,94.67C73.564,94.205 73.487,93.684 73.409,93.067C73.059,90.297 74.409,87.58 74.684,87.065C75.149,86.187 75.873,84.528 76.112,83.973C76.113,83.974 76.115,83.974 76.117,83.974C76.118,83.964 76.12,83.957 76.121,83.951C76.16,83.86 76.186,83.799 76.192,83.787L76.189,83.785C76.578,83.211 76.859,82.453 77.087,81.711C77.227,81.255 77.386,80.797 77.583,80.364C77.415,81.205 77.233,82.43 77.186,83.941C77.125,85.825 77.385,86.333 77.576,86.703C77.68,86.905 77.742,87.027 77.723,87.371C77.698,87.804 77.399,88.235 77.111,88.653C76.734,89.198 76.346,89.759 76.486,90.399C76.549,90.684 76.673,91.043 76.816,91.457C77.167,92.472 77.647,93.86 77.386,94.825C77.012,96.205 76.641,98.129 77.002,99.461C77.257,100.4 77.428,102.849 77.491,103.853C77.167,103.629 76.75,103.456 76.213,103.523C75.757,103.575 75.461,103.699 75.271,103.836C75.141,103.881 75.077,103.967 75.043,104.062C74.17,104.906 74.04,104.857 73.569,104.672L73.505,104.648C73.121,104.499 73.18,103.761 73.18,103.761ZM75.03,66.863C73.983,68.149 73.887,68.893 73.81,69.49C73.766,69.825 73.731,70.091 73.538,70.412C73.418,70.609 73.33,70.774 73.254,70.923C73.162,70.628 73.055,70.281 72.944,69.815C72.774,69.11 72.859,68.965 72.987,68.748C73.08,68.589 73.195,68.394 73.25,68.031C73.367,67.253 72.803,65.488 72.611,64.915C75.357,64.717 76.835,63.883 77.275,63.588C77.282,63.631 77.288,63.672 77.294,63.715C77.327,63.948 77.367,64.2 77.474,64.439C77.188,64.623 76.344,65.251 75.03,66.863ZM75.81,68.088L78.002,76.957L79.548,76.565C79.674,76.694 79.81,76.818 79.954,76.931C79.624,77.201 78.25,78.342 77.765,78.989C77.19,79.759 76.857,80.667 76.633,81.576C76.464,82.262 76.117,82.914 75.86,83.338C75.467,82.481 74.574,80.542 74.4,80.31C74.012,79.799 73.483,79.1 73.483,78.616C73.483,78.274 73.543,78.11 73.606,77.938C73.692,77.703 73.782,77.458 73.701,76.919C73.62,76.369 73.479,76.009 73.329,75.628C73.231,75.38 73.129,75.123 73.035,74.787C72.915,74.362 73.093,73.883 73.267,73.422C73.401,73.062 73.541,72.69 73.541,72.332C73.541,72.136 73.52,71.961 73.487,71.79L73.49,71.79C73.49,71.787 73.49,71.506 73.988,70.685C74.239,70.268 74.286,69.906 74.332,69.557C74.403,68.999 74.484,68.366 75.439,67.195C76.707,65.638 77.512,65.044 77.753,64.884C78.183,65.486 79.067,66.635 79.494,67.187L75.81,68.088ZM80.56,73.027C80.39,73.158 80.1,73.463 79.797,73.798L78.373,68.004L80.266,67.542L81.494,72.778C81.171,72.721 80.851,72.802 80.56,73.027ZM78.653,75.399C78.673,75.432 78.86,75.748 79.157,76.119L78.386,76.316L76.447,68.473L77.861,68.127L79.374,74.279C79.033,74.672 78.743,75.022 78.679,75.1L78.562,75.24L78.653,75.399ZM82.443,76.09C82.178,76.355 81.616,76.85 81.234,76.893C80.454,76.98 79.584,75.881 79.205,75.289C79.656,74.749 80.571,73.686 80.883,73.443C81.064,73.302 81.239,73.252 81.429,73.297C81.917,73.409 82.367,74.104 82.522,74.403C82.408,74.981 82.361,75.616 82.443,76.09ZM82.202,87.099L82.268,87.487C82.487,88.791 82.606,89.703 82.286,90.432C82.073,90.917 81.793,91.274 81.498,91.651C81.038,92.241 80.56,92.849 80.302,93.976C79.9,95.722 79.839,98.316 80.175,99.212C80.276,99.48 80.449,99.803 80.632,100.145C80.64,100.16 80.648,100.176 80.657,100.19L80.68,100.19C80.712,100.252 80.753,100.32 80.807,100.408C81.029,100.769 81.402,101.376 81.257,101.828C81.188,102.044 81.002,102.215 80.689,102.348C80.428,102.458 78.954,102.875 77.958,102.946C77.872,101.762 77.719,100.097 77.51,99.325C77.162,98.041 77.601,96.041 77.894,94.962C78.198,93.842 77.688,92.366 77.314,91.287C78.32,90.355 80.576,87.544 80.826,86.902C80.945,86.594 80.99,86.269 81.051,85.818C81.115,85.347 81.203,84.702 81.423,83.775C81.7,82.601 82.366,82.042 82.732,81.815C82.769,82.809 82.502,83.345 82.317,83.7C82.243,83.842 82.183,83.964 82.148,84.075C81.85,85.056 82.005,85.958 82.202,87.099ZM82.518,80.376C82.598,80.696 82.646,80.977 82.682,81.241C82.329,81.414 81.292,82.044 80.911,83.654C80.686,84.605 80.595,85.266 80.529,85.745C80.471,86.176 80.432,86.461 80.336,86.71C80.143,87.203 78.181,89.691 77.128,90.736C77.073,90.567 77.029,90.415 77.001,90.286C76.909,89.869 77.218,89.424 77.543,88.952C77.874,88.475 78.216,87.98 78.249,87.4C78.275,86.912 78.164,86.695 78.045,86.462C77.88,86.145 77.654,85.705 77.711,83.957C77.793,81.401 78.241,79.518 78.343,79.118C78.907,78.481 80.135,77.469 80.421,77.235C80.653,77.352 80.897,77.425 81.148,77.425C81.198,77.425 81.245,77.422 81.294,77.416C81.755,77.363 82.264,76.971 82.59,76.676C82.721,77.285 82.632,77.786 82.538,78.307C82.427,78.916 82.314,79.546 82.518,80.376ZM68.317,62.377C68.724,62.584 69.053,62.596 69.469,62.61C69.751,62.619 70.071,62.629 70.511,62.7C70.987,62.775 71.293,62.989 71.589,63.192C71.91,63.415 72.242,63.647 72.731,63.647C72.773,63.647 72.818,63.644 72.864,63.639C73.798,63.563 74.349,62.885 74.792,62.339L74.909,62.196C75.278,61.75 76.021,61.659 76.028,61.658L76.095,61.648L76.108,61.64C76.274,61.972 76.711,62.795 77.071,63.089C76.874,63.235 75.13,64.432 71.431,64.432L71.34,64.432C66.839,64.41 65.018,62.824 64.751,62.564C65.488,61.724 66.277,61.117 66.88,60.702L67.076,61.138C67.1,61.176 67.66,62.047 68.317,62.377ZM71.513,60.272C71.764,60.432 72.163,60.548 72.579,60.548C72.763,60.548 72.951,60.525 73.129,60.474C73.228,60.446 73.338,60.385 73.453,60.31L75.296,61.313C75.025,61.423 74.725,61.593 74.504,61.86L74.383,62.008C73.984,62.5 73.531,63.057 72.82,63.117C72.439,63.145 72.204,62.979 71.889,62.762C71.561,62.533 71.189,62.272 70.592,62.178C70.12,62.105 69.77,62.093 69.487,62.084C69.095,62.069 68.857,62.062 68.554,61.908C68.035,61.647 67.542,60.889 67.539,60.889L67.324,60.41C67.371,60.379 67.423,60.344 67.465,60.317C68.461,59.75 69.69,59.946 70.424,59.44C70.779,59.722 71.326,60.151 71.513,60.272ZM70.908,56.057C71.18,55.607 71.227,55.416 71.259,55.293C71.276,55.224 71.279,55.209 71.335,55.143C71.34,55.135 71.905,54.443 72.543,54.662C73.002,54.822 73.304,54.812 73.508,54.808C73.605,54.807 73.673,54.805 73.715,54.822C73.895,54.89 73.939,54.992 74.015,55.2C74.079,55.38 74.16,55.604 74.387,55.771C74.605,55.928 74.832,55.973 75.015,56.011C75.259,56.061 75.34,56.081 75.397,56.239C75.648,56.942 74.835,58.188 74.507,58.6C74.067,59.111 73.302,59.873 72.98,59.969C72.529,60.102 72.015,59.969 71.797,59.826C71.623,59.717 71.032,59.251 70.652,58.948C70.657,58.927 70.666,58.909 70.67,58.886C70.828,57.916 70.497,57.588 70.078,57.172C70.078,57.172 69.981,57.086 69.961,57.067C70.22,56.883 70.611,56.549 70.908,56.057ZM76.419,57.912C76.475,58.346 76.528,58.758 76.164,59.131C75.777,59.527 75.035,59.342 74.653,59.227C74.772,59.097 74.865,58.99 74.912,58.936C75.053,58.756 76.288,57.162 75.891,56.063C75.732,55.618 75.377,55.547 75.118,55.495C74.966,55.464 74.821,55.435 74.698,55.344C74.605,55.276 74.567,55.182 74.509,55.023C74.428,54.797 74.316,54.49 73.905,54.328C73.765,54.276 73.635,54.28 73.495,54.282C73.317,54.285 73.085,54.289 72.714,54.164C71.929,53.896 71.22,54.446 70.925,54.812C70.806,54.957 70.777,55.048 70.748,55.165C70.724,55.258 70.689,55.401 70.457,55.784C70.137,56.318 69.674,56.634 69.508,56.735C69.452,56.7 69.396,56.663 69.339,56.628C69.105,56.483 68.668,56.213 68.676,56.083C68.681,55.994 68.742,55.944 68.954,55.818C69.147,55.702 69.387,55.56 69.518,55.28C69.566,55.177 69.609,55.03 69.656,54.862C69.74,54.556 69.845,54.174 70.05,53.996C70.16,53.904 70.617,53.873 70.918,53.855C71.293,53.83 71.616,53.811 71.826,53.705C71.981,53.627 72.108,53.526 72.219,53.438C72.397,53.293 72.536,53.182 72.759,53.172C73.075,53.15 73.193,53.317 73.33,53.52C73.43,53.664 73.553,53.847 73.779,53.872C73.96,53.894 74.139,53.82 74.313,53.746C74.549,53.648 74.713,53.589 74.845,53.654C74.989,53.726 75.128,54.07 75.229,54.322C75.339,54.595 75.435,54.833 75.594,54.965C75.663,55.023 75.707,55.076 75.751,55.13C75.872,55.278 76.01,55.444 76.415,55.603C76.524,55.644 76.6,55.732 76.647,55.869C76.757,56.194 76.664,56.666 76.513,56.92C76.331,57.223 76.377,57.574 76.419,57.912ZM69.187,79.046C69.091,78.6 69.052,78.232 68.997,77.926C68.819,76.916 68.754,76.537 68.878,75.686C69.025,74.689 68.68,74.135 68.347,73.6C68.258,73.457 68.169,73.315 68.088,73.159C67.75,72.504 67.393,71.64 67.646,70.764C67.86,70.023 68.295,68.172 67.684,67.038C67.25,66.229 66.577,65.193 65.832,64.838C65.237,64.556 63.942,64.45 63.747,64.434C63.834,63.973 63.943,63.6 64.072,63.428C64.182,63.267 64.297,63.118 64.413,62.97C64.837,63.374 66.768,64.934 71.336,64.96L71.432,64.96C71.65,64.96 71.859,64.953 72.066,64.946C72.288,65.583 72.825,67.321 72.729,67.953C72.689,68.214 72.614,68.344 72.533,68.482C72.34,68.81 72.23,69.09 72.431,69.938C72.553,70.447 72.671,70.823 72.77,71.138C72.917,71.606 73.014,71.916 73.014,72.332C73.014,72.597 72.897,72.907 72.773,73.237C72.581,73.754 72.361,74.338 72.529,74.931C72.63,75.291 72.741,75.573 72.838,75.822C72.983,76.188 73.108,76.505 73.181,76.997C73.241,77.402 73.187,77.552 73.112,77.754C73.042,77.945 72.956,78.181 72.956,78.616C72.956,79.277 73.523,80.026 73.98,80.629C74.119,80.811 74.252,80.988 74.34,81.124C74.374,81.158 75.342,83.356 75.55,83.813L75.547,83.817C75.547,83.817 75.556,83.831 75.568,83.854C75.576,83.87 75.579,83.874 75.583,83.883C75.306,84.522 74.646,86.024 74.223,86.82C73.965,87.305 73.349,88.582 73.029,90.184C72.465,89.693 71.381,88.723 70.947,88.153C70.62,87.722 70.522,87.416 70.386,86.994C70.285,86.68 70.158,86.284 69.899,85.752C69.433,84.791 68.668,84.102 68.314,83.817C68.289,83.719 68.263,83.639 68.229,83.6C68.297,83.47 68.365,83.339 68.427,83.217C68.538,82.998 69.65,81.191 69.187,79.046ZM72.835,102.57C71.554,102.424 70.378,101.831 69.916,101.569C69.522,101.348 69.308,100.95 69.245,100.817C69.155,100.298 69.069,99.57 69.108,98.693C69.127,98.235 69.147,97.903 69.163,97.619C69.192,97.092 69.214,96.711 69.214,95.998C69.214,95.504 69.142,95.282 69.032,94.941C68.881,94.475 68.654,93.77 68.389,91.686C68.062,89.112 68.219,86.98 68.335,85.42C68.351,85.199 68.366,84.994 68.378,84.797C68.387,84.82 68.396,84.834 68.404,84.857L68.398,84.86C68.405,84.871 68.414,84.89 68.42,84.903C68.425,84.917 68.424,84.786 68.414,84.607C68.748,84.937 69.152,85.408 69.43,85.982C69.672,86.48 69.788,86.839 69.89,87.155C70.03,87.59 70.15,87.966 70.532,88.467C71.076,89.186 72.503,90.423 72.927,90.784C72.822,91.529 72.789,92.324 72.892,93.132C72.97,93.755 73.047,94.278 73.116,94.744C73.331,96.205 73.46,97.086 73.314,98.711C73.198,100.014 72.986,101.551 72.835,102.57ZM70.581,103.872C70.665,103.853 70.744,103.847 70.812,103.847C70.912,103.847 71.063,104.057 71.089,104.133C71.295,104.735 71.236,105.854 71.115,106.051C70.993,106.228 69.977,106.617 69.556,106.389C69.019,106.102 69.011,105.851 69.073,105.642C69.204,105.211 70,104.005 70.581,103.872ZM69.046,102.639L69.359,104.057L67.269,104.057L69.046,102.639ZM71.092,103.37C71.042,103.349 70.99,103.332 70.941,103.323C70.349,103.221 69.951,103.549 69.893,103.572C69.881,103.587 69.864,103.598 69.847,103.608L69.47,101.897C69.529,101.941 69.591,101.984 69.659,102.023C69.961,102.194 70.553,102.497 71.282,102.744L71.092,103.37ZM68.807,101.557L68.909,102.016L68.397,102.424L67.413,95.326L68.395,94.825C68.427,94.934 68.458,95.032 68.486,95.117C68.59,95.436 68.641,95.594 68.641,95.998C68.641,96.697 68.621,97.05 68.59,97.586C68.574,97.873 68.555,98.207 68.535,98.669C68.474,100.063 68.707,101.109 68.807,101.557ZM67.646,87.318C67.595,88.588 67.606,90.078 67.82,91.759C67.975,92.977 68.118,93.739 68.243,94.258L67.329,94.725L66.365,87.78L67.646,87.318ZM67.772,84.099C67.793,84.135 67.817,84.17 67.837,84.206C67.825,84.541 67.795,84.937 67.764,85.378C67.733,85.782 67.701,86.222 67.674,86.697L66.285,87.2L66.072,85.668C66.623,85.207 67.318,84.598 67.772,84.099ZM65.302,84.285L65.469,85.492C65.382,85.563 65.294,85.635 65.211,85.701L65.057,85.256C65.054,85.249 64.846,84.7 64.916,84.078C64.946,83.815 65.095,83.589 65.268,83.33C65.479,83.014 65.716,82.656 65.761,82.162L65.741,82.161C66.108,81.744 66.732,81.957 66.973,82.066C67.3,82.269 67.467,82.885 67.421,83.515C67.429,83.529 67.44,83.534 67.447,83.548C67.462,83.577 67.479,83.6 67.493,83.627C67.168,84.008 66.587,84.545 65.988,85.058L65.87,84.206L65.302,84.285ZM65.126,82.028C65.172,82.127 65.195,82.212 65.207,82.293C65.14,82.571 64.994,82.802 64.835,83.04C64.642,83.332 64.442,83.63 64.398,84.022C64.314,84.765 64.56,85.415 64.566,85.435L64.84,86.221L65.247,86.34C65.293,86.305 65.403,86.215 65.552,86.095L65.734,87.4L64.125,87.983L64.125,78.122L64.139,78.108C64.313,78.288 64.517,78.422 64.695,78.535C64.843,78.63 64.983,78.72 65.07,78.812C65.311,79.075 65.24,79.452 65.102,80.048C64.964,80.653 64.805,81.338 65.126,82.028ZM66.571,104.057L64.125,104.057L64.125,93.332L66.571,104.057ZM65.428,96.365L66.872,95.603L67.863,102.757L67.048,103.514L65.428,96.365ZM72.663,104.021L71.603,104.021C71.598,104.005 71.555,103.84 71.53,103.723L71.78,102.895C72.093,102.98 72.42,103.045 72.758,103.084C72.702,103.449 72.665,103.681 72.663,103.691C72.661,103.706 72.651,103.842 72.663,104.021ZM91.194,91.1C91.981,90.874 92.656,90.537 93.27,90.146C93.144,90.746 93.053,91.64 93.33,92.522C94.006,94.672 93.695,97.655 93.549,98.307C93.433,98.81 93.034,99.658 92.898,99.937C92.864,99.949 92.828,99.967 92.79,100.001C92.389,99.889 91.943,99.813 91.45,99.813C91.387,99.813 91.323,99.813 91.258,99.817C90.631,99.842 90.054,99.95 89.543,100.048C88.955,100.16 88.448,100.252 88.017,100.203C87.523,100.144 87.014,100.047 86.695,99.602C86.317,99.074 86.268,98.141 86.545,96.826C87.24,93.532 88.041,92.008 91.194,91.1ZM93.832,92.364C93.466,91.205 93.844,89.961 93.941,89.676C94.268,89.429 94.579,89.169 94.879,88.904C94.759,89.533 94.702,90.373 95.037,91.011C96.109,93.033 96.532,95.287 96.263,97.529C96.176,98.243 95.853,100.646 95.764,101.297C95.379,101.233 94.94,100.993 94.559,100.786L94.412,100.705C94.123,100.549 93.769,100.361 93.357,100.197C93.487,99.93 93.93,99.001 94.062,98.422C94.242,97.629 94.533,94.597 93.832,92.364ZM92.192,103.225C92.102,103.042 91.892,102.087 92.619,101.067C92.772,100.852 92.88,100.71 92.955,100.611C93.437,100.777 93.839,100.993 94.161,101.17L94.306,101.246C94.769,101.499 95.342,101.81 95.883,101.838C95.992,102.069 96.156,102.486 96.234,103.038C96.277,103.342 96.321,103.778 96.33,104.115L92.663,104.115C92.563,103.855 92.363,103.531 92.273,103.372C92.24,103.312 92.211,103.264 92.192,103.225ZM90.335,102.435C90.328,102.317 90.32,102.188 90.32,102.049C90.32,101.551 90.134,100.885 90.012,100.5C90.415,100.427 90.829,100.361 91.278,100.342C91.69,100.331 92.064,100.38 92.41,100.459C92.344,100.548 92.274,100.646 92.192,100.761C91.318,101.983 91.566,103.148 91.721,103.461C91.745,103.505 91.776,103.563 91.815,103.63C91.989,103.938 92.279,104.453 92.223,104.922C92.175,105.321 91.308,105.64 90.853,105.722C90.449,105.796 89.946,106.013 89.316,106.387C88.817,106.683 87.997,107.184 87.547,107.461C87.505,107.246 87.454,106.965 87.416,106.684C87.357,106.264 87.846,105.689 88.336,105.419C88.716,105.212 89.022,104.916 89.352,104.548L89.383,104.548L89.383,104.514C89.483,104.4 89.585,104.284 89.693,104.158L89.885,103.938C90.393,103.357 90.365,102.909 90.335,102.435ZM102.602,100.588L102.619,104.108L98.639,104.108C98.558,103.918 98.505,103.737 98.499,103.545C98.48,102.978 99.189,101.219 99.527,100.437C99.717,100.445 99.923,100.441 100.167,100.413C100.664,100.352 101.073,100.186 101.393,99.915C101.629,100.154 102.085,100.531 102.602,100.588ZM100.848,92.862C101.166,94.354 101.599,97.635 101.605,97.675C101.607,97.685 101.754,98.639 101.265,99.288C101.011,99.627 100.621,99.826 100.104,99.891C99.633,99.946 99.307,99.904 98.962,99.855C98.599,99.806 98.223,99.754 97.643,99.848C97.143,100.035 96.982,100.322 96.826,100.599C96.72,100.789 96.617,100.971 96.385,101.17C96.361,101.189 96.333,101.197 96.308,101.213C96.416,100.399 96.704,98.258 96.784,97.591C97.067,95.245 96.625,92.883 95.502,90.764C95.064,89.934 95.495,88.548 95.593,88.256C95.612,88.24 95.631,88.221 95.65,88.203C97.356,86.626 98.835,85.257 101.61,85.924C101.563,86.163 101.511,86.39 101.459,86.598C100.978,88.503 100.48,91.138 100.848,92.862ZM100.138,75.026C100.412,75.015 100.683,74.984 100.944,74.938C101.222,75.584 102.051,77.62 102.12,79.029C102.188,80.444 102.077,83.095 101.736,85.222C101.726,85.284 101.717,85.343 101.706,85.406C98.673,84.69 97.031,86.209 95.293,87.816C94.093,88.927 92.854,90.073 91.048,90.593C89.626,91.004 88.647,91.543 87.93,92.282C88.159,91.622 88.696,90.632 89.95,89.883C90.617,89.486 91.04,88.774 91.448,88.082C91.722,87.62 92.005,87.143 92.357,86.771C93.271,85.805 93.775,85.311 94.512,84.664L94.756,84.451C95.417,83.877 96.042,83.333 96.93,82.119C97.799,80.928 98.965,78.922 99.631,76.865C99.924,75.958 100.068,75.385 100.138,75.026ZM98.906,72.775C98.789,73.047 98.693,73.302 98.823,73.496C98.864,73.557 98.957,73.656 99.137,73.656L99.147,73.656L99.272,73.651C99.733,73.645 100.363,73.636 100.718,73.124C100.975,72.755 101.168,72.589 101.279,72.52L101.279,72.541C101.276,72.804 101.272,73.242 101.674,73.428C101.878,73.527 102.021,73.711 102.287,73.998C101.643,74.254 100.799,74.503 99.937,74.508C98.75,74.526 97.648,74.209 97.039,73.993C97.119,73.938 97.198,73.877 97.272,73.813C97.479,73.632 97.628,73.373 97.738,73.085C98.117,73.018 98.551,72.919 98.906,72.775ZM98.057,71.64C98.101,71.323 98.638,70.591 98.835,70.401C99.107,70.142 99.246,69.623 99.159,69.2C99.095,68.877 98.766,68.772 98.502,68.686C98.413,68.657 98.264,68.612 98.253,68.635C98.267,68.52 98.638,68.157 99.2,67.909C99.756,67.662 100.392,67.602 100.56,67.776C100.861,68.085 100.74,68.473 100.521,69.028C100.369,69.414 100.225,69.782 100.381,70.102C100.468,70.283 100.64,70.412 100.889,70.487C101.079,70.542 101.294,70.514 101.521,70.487C102.024,70.418 102.591,70.344 103.201,71.075C103.346,71.247 103.215,71.739 103.109,72.129C102.974,72.632 102.845,73.11 103.083,73.421C103.116,73.464 103.165,73.513 103.22,73.563C103.103,73.627 102.942,73.709 102.746,73.8C102.351,73.322 102.298,73.138 101.894,72.951C101.81,72.91 101.804,72.751 101.807,72.547C101.808,72.347 101.811,72.071 101.559,71.983C101.303,71.893 100.88,71.97 100.286,72.825C100.097,73.099 99.714,73.117 99.332,73.124C99.357,73.057 99.389,72.983 99.413,72.929C99.539,72.639 99.656,72.366 99.46,72.184C99.267,72.004 99,72.147 98.886,72.206C98.627,72.341 98.26,72.443 97.905,72.517C97.976,72.206 98.021,71.898 98.057,71.64ZM100.938,67.409C100.486,66.945 99.499,67.2 98.988,67.426C98.522,67.633 97.659,68.162 97.73,68.697C97.772,69.003 98.086,69.106 98.339,69.188C98.436,69.217 98.616,69.277 98.644,69.303C98.694,69.55 98.613,69.884 98.472,70.021C98.404,70.085 98.278,70.233 98.141,70.413C97.529,69.967 97.154,69.248 97.154,68.485C97.154,67.169 98.225,66.096 99.543,66.096C100.861,66.096 101.932,67.169 101.932,68.485C101.932,69.027 101.743,69.547 101.407,69.969C101.257,69.989 101.116,70.004 101.04,69.983C100.981,69.965 100.882,69.927 100.854,69.871C100.799,69.759 100.912,69.471 101.011,69.221C101.217,68.701 101.496,67.987 100.938,67.409ZM85.677,91.557C86.143,92.187 86.895,92.972 87.188,93.269C86.663,94.171 86.331,95.293 86.029,96.718C85.716,98.202 85.794,99.246 86.267,99.908C86.746,100.579 87.502,100.67 87.953,100.726C88.42,100.784 88.941,100.696 89.489,100.593C89.599,100.931 89.793,101.594 89.793,102.049C89.793,102.201 89.802,102.339 89.81,102.468C89.837,102.908 89.855,103.174 89.489,103.592L89.295,103.814C89.232,103.887 89.174,103.953 89.114,104.021L81.225,104.021C81.126,104.074 80.534,104.019 80.461,104.019C80.406,104.019 79.953,103.98 79.764,103.993C79.745,104.002 79.725,104.012 79.708,104.016L79.71,104.021L78.029,104.021C78.021,103.883 78.008,103.691 77.994,103.468C79.066,103.389 80.605,102.948 80.892,102.827C81.347,102.635 81.637,102.351 81.754,101.986C81.971,101.306 81.52,100.573 81.251,100.134C81.189,100.035 81.14,99.959 81.122,99.912L81.106,99.916C81.104,99.91 81.1,99.904 81.096,99.897C80.922,99.572 80.757,99.262 80.669,99.028C80.399,98.31 80.414,95.843 80.815,94.094C81.049,93.08 81.468,92.545 81.912,91.975C82.215,91.59 82.528,91.19 82.768,90.642C83.147,89.783 83.015,88.756 82.787,87.4L82.72,87.009C82.528,85.894 82.389,85.091 82.651,84.229C82.678,84.144 82.727,84.051 82.784,83.943C83.077,83.377 83.567,82.432 83.029,80.248C82.851,79.528 82.951,78.981 83.056,78.403C83.174,77.748 83.297,77.075 83.001,76.175C82.784,75.518 83.067,74.098 83.328,73.518C83.859,74.368 84.62,75.039 85.029,75.365C84.58,75.95 84.353,76.622 84.594,77.378C84.849,78.178 85.14,78.705 85.396,79.172C85.819,79.944 86.098,80.454 85.96,81.7C85.873,82.475 85.803,83.204 85.738,83.891C85.627,85.081 85.529,86.107 85.375,87.029C85.166,88.274 84.995,90.63 85.677,91.557ZM85.856,78.92C85.612,78.473 85.335,77.967 85.095,77.218C84.564,75.554 87.28,74.182 88.439,73.594C88.588,73.52 88.718,73.453 88.872,73.369C89.811,72.863 90.975,72.232 92.365,72.547C92.553,72.589 92.806,72.647 93.095,72.69C92.926,73.239 92.46,74.645 91.853,75.492C91.037,76.633 89.737,78.096 89.278,78.396C88.673,78.788 87.833,80.08 87.548,81.053C87.377,81.636 86.917,83.207 86.269,83.88C86.332,83.215 86.399,82.508 86.482,81.758C86.639,80.346 86.294,79.716 85.856,78.92ZM101.457,54.778C101.307,53.955 101.012,53.188 100.599,52.493C102.297,52.153 103.616,51.759 104.527,51.319L104.527,53.702C103.882,54.078 103.042,54.464 101.457,54.778ZM101.539,55.343C103.002,55.058 103.872,54.709 104.527,54.356L104.527,68.002C104.476,67.914 104.43,67.83 104.376,67.742L104.301,67.616C104.251,67.53 104.151,67.416 103.986,67.231C103.383,66.549 101.968,64.954 101.71,62.876C101.532,61.445 100.696,60.341 100.347,59.938C101.151,58.78 101.573,57.428 101.573,56.011C101.573,55.784 101.561,55.563 101.539,55.343ZM98.877,60.158C99.028,60.207 99.189,60.228 99.344,60.228C99.523,60.228 99.696,60.201 99.847,60.167C99.95,60.276 100.658,61.068 101.014,62.192C100.719,62.108 99.978,61.575 99.978,61.575C99.933,61.542 99.032,60.938 97.984,60.912C97.569,60.902 97.008,61.084 96.696,61.194C96.695,61.157 96.702,61.113 96.698,61.08C96.671,60.808 96.616,60.539 96.57,60.344C96.583,60.344 96.542,60.198 96.513,60.119C96.5,60.072 96.491,60.039 96.489,60.034L96.483,60.036C96.393,59.753 96.37,59.445 96.444,59.165C96.658,58.36 96.574,56.918 96.502,56.13C96.459,55.639 96.112,54.403 95.371,53.943C95.125,53.791 94.84,53.681 94.544,53.606C94.847,53.349 95.218,53.149 95.969,53.188C96.291,53.206 96.626,53.422 96.915,53.791C97.385,54.394 97.629,55.26 97.509,55.899L97.475,56.077C97.274,57.09 96.803,59.464 98.877,60.158ZM90.381,59.029C90.17,58.678 89.951,58.314 89.965,57.963C89.981,57.574 90.135,57.325 90.301,57.063C90.481,56.776 90.669,56.48 90.631,56.04C90.575,55.375 90.765,53.791 91.703,53.407C92.494,53.076 92.945,53.26 93.246,53.526C92.862,53.575 92.518,53.695 92.273,53.889C91.599,54.424 91.414,54.94 91.314,55.418C91.261,55.676 91.1,57.318 91.135,57.812C91.177,58.444 91.417,59.059 91.542,59.325L91.538,59.326C91.54,59.328 91.671,59.53 91.727,59.961C91.78,60.37 91.801,61.255 91.796,61.659C91.525,61.739 90.969,61.881 90.451,61.891C90.255,61.897 90.046,61.887 89.944,61.881C89.88,61.875 89.823,61.874 89.752,61.86C89.308,61.776 88.949,61.68 88.703,61.608C88.618,61.313 88.558,60.867 88.735,60.785C88.861,60.732 89.054,60.77 89.259,60.809C89.67,60.889 90.231,60.999 90.642,60.397C90.942,59.961 90.657,59.488 90.381,59.029ZM90.677,49.454L90.677,44.027C90.677,43.225 93.352,41.363 93.823,41.026C94.62,41.613 96.478,43.194 96.644,44.262L96.644,49.399C96.017,49.211 95.356,49.108 94.668,49.108C93.917,49.108 93.195,49.231 92.518,49.454L90.677,49.454ZM91.314,49.983C90.1,50.661 89.114,51.697 88.492,52.946C86.62,52.68 85.003,52.219 83.884,51.675C84.063,51.591 84.265,51.371 84.265,51.371C84.442,51.165 84.551,50.905 84.551,50.617C84.551,50.382 84.481,50.165 84.36,49.983L91.314,49.983ZM76.719,38.721L76.719,33.249L90.061,33.249L90.061,38.721L88.937,38.721L88.937,39.248L90.061,39.248L90.061,49.454L89.241,49.454C88.85,46.519 84.313,39.5 83.661,38.503L83.661,35.839L83.046,35.839L83.046,38.518C82.355,39.56 77.967,46.267 77.588,49.454L76.719,49.454L76.719,39.248L77.842,39.248L77.842,38.721L76.719,38.721ZM68.757,49.983C67.889,50.465 67.14,51.136 66.553,51.934C64.627,51.559 63.146,51.106 62.272,50.619L62.261,50.636L62.261,49.983L68.757,49.983ZM65.184,41.2C66.035,41.825 68.031,43.489 68.084,44.586L68.084,49.454L62.261,49.454L62.261,43.587C63.321,42.561 64.734,41.522 65.184,41.2ZM62.261,38.721L62.261,38.074L68.084,34.889L68.084,43.273C67.292,42.172 65.884,41.098 65.438,40.772L65.438,38.678L64.891,38.678L64.891,40.801C64.477,41.096 63.291,41.962 62.261,42.905L62.261,39.248L63.521,39.248L63.521,38.721L62.261,38.721ZM63.585,90.969L63.585,105.573L62.261,105.572L62.261,54.336C62.83,54.631 63.703,54.973 65.248,55.278C65.223,55.52 65.208,55.762 65.208,56.011C65.208,57.555 65.708,59.012 66.649,60.227C65.807,60.794 64.598,61.719 63.644,63.122C63.021,63.955 62.952,67.225 62.951,67.257C62.93,68.346 63.266,69.976 63.451,70.605C63.661,71.321 63.575,72.012 63.507,72.568C63.48,72.789 63.455,72.992 63.451,73.168C63.443,73.446 63.322,73.987 63.204,74.508C63.068,75.112 62.941,75.684 62.951,75.994C62.969,76.709 63.304,77.346 63.585,77.766L63.585,88.178L62.997,88.391L63.585,90.969ZM65.694,107.656L65.697,105.578L64.125,105.574L64.125,104.513L66.675,104.513L66.679,104.527L66.696,104.513L69.108,104.513C68.83,104.906 68.629,105.296 68.57,105.49C68.455,105.87 68.489,106.414 69.308,106.852C69.472,106.941 69.68,106.979 69.904,106.979C70.565,106.979 71.364,106.649 71.562,106.327C71.756,106.016 71.792,105.2 71.71,104.548L72.77,104.548C72.862,104.791 73.026,105.021 73.317,105.134L73.379,105.157C73.609,105.249 73.8,105.309 73.991,105.309C74.31,105.309 74.633,105.142 75.149,104.677C75.372,105.08 75.575,105.335 75.789,105.465C75.947,105.561 76.134,105.791 76.316,106.011C76.656,106.426 77.041,106.896 77.546,106.896C77.647,106.896 77.768,106.901 77.899,106.906C78.071,106.913 78.258,106.922 78.445,106.922C79.123,106.922 79.817,106.828 79.947,106.283C80.162,105.385 79.226,104.994 78.667,104.76C78.508,104.693 78.365,104.635 78.268,104.573C78.262,104.57 78.249,104.555 78.24,104.548L88.617,104.548C88.445,104.714 88.272,104.853 88.083,104.957C87.438,105.314 86.801,106.064 86.894,106.756C86.94,107.096 87.004,107.43 87.05,107.656L65.694,107.656ZM80.334,110.544L80.334,111.427C79.699,111.373 79.141,111.348 78.721,111.338C77.562,111.304 76.824,111.425 76.15,111.615L76.15,108.183L79.421,108.183L77.842,110.539L80.334,110.544ZM78.801,110.053L80.059,108.183L80.334,108.183L80.334,110.053L78.801,110.053ZM96.838,104.108C96.838,104.108 96.806,103.321 96.754,102.961C96.681,102.442 96.539,102.03 96.42,101.753C96.526,101.709 96.627,101.652 96.724,101.57C97.03,101.312 97.172,101.059 97.286,100.857C97.424,100.609 97.507,100.46 97.775,100.354C98.225,100.285 98.548,100.329 98.891,100.377C98.919,100.381 98.948,100.385 98.977,100.389C98.669,101.109 97.951,102.872 97.973,103.563C97.98,103.754 98.024,103.932 98.083,104.108L98.082,104.108C98.083,104.108 98.084,104.109 98.084,104.111C98.138,104.242 98.443,104.875 98.555,105.064C98.752,105.403 98.976,105.784 99.182,106.268C99.285,106.514 99.291,106.715 99.198,106.889C99.01,107.243 98.442,107.425 98.265,107.46C97.754,107.507 97.101,107.473 96.946,107.355C96.819,107.259 96.847,106.614 96.86,106.304C96.871,106.057 96.833,104.243 96.838,104.108ZM104.52,100.02L104.52,105.573L103.225,105.57L103.201,100.546C103.759,100.448 104.204,100.269 104.52,100.02ZM104.513,99.326C104.482,99.366 104.445,99.399 104.406,99.43C104.337,99.511 104.254,99.58 104.153,99.629C103.769,99.917 103.194,100.032 102.792,100.074C102.42,100.123 101.974,99.754 101.742,99.516C102.292,98.695 102.132,97.637 102.125,97.599C102.108,97.463 101.686,94.264 101.362,92.751C101.091,91.483 101.307,89.346 101.97,86.727C102.074,86.314 102.17,85.836 102.255,85.305C102.602,83.145 102.715,80.447 102.645,79.004C102.576,77.559 101.792,75.581 101.468,74.822C101.542,74.803 101.616,74.783 101.689,74.762C104.45,78.052 104.49,80.366 104.506,81.619L104.52,99.328C104.519,99.326 104.515,99.326 104.513,99.326ZM105.055,49.454L105.055,43.592C113.749,50.236 118.928,60.672 118.928,71.614C118.928,73.119 118.827,74.614 118.636,76.09L115,76.09C115,76.09 114.978,72.289 114.969,69.563L116.979,71.433L117.37,71.014L114.944,68.766C114.942,67.636 114.94,65.184 114.94,65.184C114.992,65.31 115.115,65.401 115.261,65.401C115.452,65.401 115.608,65.245 115.608,65.053C115.608,64.862 115.452,64.705 115.261,64.705C115.115,64.705 114.992,64.795 114.94,64.922L114.94,64.011C114.992,64.137 115.115,64.228 115.261,64.228C115.452,64.228 115.608,64.073 115.608,63.88C115.608,63.689 115.452,63.533 115.261,63.533C115.115,63.533 114.992,63.622 114.94,63.749L114.94,62.838C114.992,62.966 115.115,63.055 115.261,63.055C115.452,63.055 115.608,62.899 115.608,62.706C115.608,62.516 115.452,62.36 115.261,62.36C115.115,62.36 114.992,62.45 114.94,62.576L114.94,62.185L114.812,62.185C114.923,62.128 115.001,62.015 115.001,61.881C115.001,61.689 114.845,61.533 114.653,61.533C114.461,61.533 114.306,61.689 114.306,61.881C114.306,62.015 114.383,62.128 114.494,62.185L114.366,62.185L114.366,62.542C114.307,62.436 114.197,62.36 114.066,62.36C113.875,62.36 113.719,62.516 113.719,62.706C113.719,62.899 113.875,63.055 114.066,63.055C114.197,63.055 114.307,62.98 114.366,62.872L114.366,63.715C114.307,63.609 114.197,63.533 114.066,63.533C113.875,63.533 113.719,63.689 113.719,63.88C113.719,64.073 113.875,64.228 114.066,64.228C114.197,64.228 114.307,64.152 114.366,64.046L114.366,64.888C114.307,64.782 114.197,64.705 114.066,64.705C113.875,64.705 113.719,64.862 113.719,65.053C113.719,65.245 113.875,65.401 114.066,65.401C114.197,65.401 114.307,65.326 114.366,65.217L114.366,68.61L111.35,68.618C111.35,68.546 111.313,57.386 111.313,57.386C111.365,57.512 111.489,57.603 111.634,57.603C111.826,57.603 111.981,57.446 111.981,57.254C111.981,57.063 111.826,56.908 111.634,56.908C111.489,56.908 111.365,56.996 111.313,57.123L111.313,56.213C111.365,56.339 111.489,56.43 111.634,56.43C111.826,56.43 111.981,56.274 111.981,56.081C111.981,55.89 111.826,55.735 111.634,55.735C111.489,55.735 111.365,55.825 111.313,55.95L111.313,55.041C111.365,55.166 111.489,55.256 111.634,55.256C111.826,55.256 111.981,55.102 111.981,54.908C111.981,54.716 111.826,54.562 111.634,54.562C111.489,54.562 111.365,54.652 111.313,54.778L111.313,54.387L111.186,54.387C111.296,54.33 111.374,54.218 111.374,54.083C111.374,53.894 111.218,53.737 111.026,53.737C110.834,53.737 110.678,53.894 110.678,54.083C110.678,54.218 110.756,54.33 110.867,54.387L110.739,54.387L110.739,54.742C110.681,54.637 110.57,54.562 110.439,54.562C110.248,54.562 110.091,54.716 110.091,54.908C110.091,55.102 110.248,55.256 110.439,55.256C110.57,55.256 110.681,55.181 110.739,55.075L110.739,55.916C110.681,55.81 110.57,55.735 110.439,55.735C110.248,55.735 110.091,55.89 110.091,56.081C110.091,56.274 110.248,56.43 110.439,56.43C110.57,56.43 110.681,56.355 110.739,56.246L110.739,57.089C110.681,56.984 110.57,56.908 110.439,56.908C110.248,56.908 110.091,57.063 110.091,57.254C110.091,57.446 110.248,57.603 110.439,57.603C110.57,57.603 110.681,57.527 110.739,57.42L110.739,63.643C109.662,58.738 106.932,55.06 105.055,53.739L105.055,49.983L106.526,49.983L106.526,49.454L105.055,49.454ZM90.776,31.841L90.776,32.721L75.97,32.721L75.97,31.841L90.776,31.841ZM83.617,30.17L84.593,30.17L84.593,29.643L83.617,29.643L83.617,28.319C86.313,28.383 88.713,29.576 89.668,31.314L83.617,31.314L83.617,30.17ZM83.57,27.49C59.403,27.49 39.741,47.152 39.741,71.318C39.741,86.678 47.691,100.21 59.687,108.039L59.914,108.183C66.743,112.582 74.86,115.146 83.57,115.146C107.737,115.146 127.398,95.484 127.398,71.318C127.398,47.152 107.737,27.49 83.57,27.49Z" style="fill:rgb(35,31,32);fill-rule:nonzero;"/>
        </g>
    </g>
</svg>
